<svg xmlns="http://www.w3.org/2000/svg" width="763.2" height="379.3" viewBox="-76.7 223.7 763.2 379.3"><path fill="#FFF" d="M-76.7 223.7h763.2V603H-76.7z"/><path d="M203.8 431.7V455c-2.7 2.4-5.3 4.1-9.2 4.1-4.6 0-10.9-3.9-10.9-15.5.2-12.7 9.9-21.6 20.1-11.9zm-102.1 11.6c0 9-2.9 16-9.7 16-6.6 0-9.7-7-9.7-16s2.9-16 9.7-16c6.5 0 9.7 7 9.7 16zm-58.3-27.4h-6.1l-12.1 31.3L12.4 411H0l19.2 51.4H25l12.4-31.8 12.4 31.8h5.8l19.2-51.2H69l-13.3 35.9-12.3-31.2zm406.3 46.6v-21.1c0-14.3-10.9-18-17.5-18-4.6 0-8.5 1.7-12.4 4.4h-.2v-3.6h-9.7v38.6h10.7v-31.3c3.2-2.7 6.3-3.9 9-3.9 5.6 0 9.5 5.3 9.5 11.4v23.5h10.6zm-195.4 0h4.6l22.6-51.7h-5.8l-15.8 36.4-15.5-36.4h-12.9l22.8 51.7zm-62.6 1c5.1 0 9.2-1.7 12.9-4.6h.2v3.6h9.7v-58.7h-10.7v23.5c-2.9-2.2-7.5-3.6-12.1-3.6-5.8 0-19.7 3.6-19.7 20.4 0 12.3 11.2 19.4 19.7 19.4zm110.9-28.9c-1 14.6 20.4 11.2 19.9 20.1-.2 3.6-3.4 4.9-6.6 4.6-5.3-.5-8.5-3.4-11.4-6.8l-3.2 7c4.4 2.4 9 3.6 13.1 3.9 9.2.7 17-3.4 17.5-12.4 1-13.8-21.4-12.1-20.9-19.2.2-3.2 3.6-4.6 7.3-4.4 3.6.2 6.6 2.4 9.7 5.3l2.9-6.3c-3.9-1.7-7.8-2.7-11.2-2.9-10.1-.3-16.9 4.8-17.1 11.1zM290 406.7c-3.2 0-5.6 2.4-5.6 5.6 0 3.2 2.4 5.6 5.6 5.6 3.2 0 5.6-2.4 5.6-5.6 0-3.2-2.5-5.6-5.6-5.6zm55.1 0c-3.2 0-5.6 2.4-5.6 5.6 0 3.2 2.4 5.6 5.6 5.6 3.2 0 5.6-2.4 5.6-5.6 0-3.2-2.5-5.6-5.6-5.6zm-5.6 17.4v21.6c0 11.2 4.6 18.2 26.9 18.2 26.2 0 35.2-9.9 35.2-21.1 0-10.9-8.7-19.4-20.6-19.4-13.1 0-20.6 8.7-20.6 17.5 0 6.3 3.9 12.9 12.4 16.3l2.7-2.9c-3.4-3.9-4.6-8.5-4.6-12.6 0-7.8 4.6-14.3 10.2-14.3 7 0 10.2 7.8 10.2 15.8s-2.9 17.2-21.8 17.2c-15 0-19.2-3.2-19.2-12.1v-24h-10.8zm-45.6 38.4v-38.3h-10.7v38.6h10.7v-.3zM71.1 443.3c0 10.7 8 19.7 20.9 19.7s20.9-9 20.9-19.7-8-19.7-20.9-19.7-20.9 9-20.9 19.7zm93.2 19.2v-58.7h-10.7v58.7h10.7zm-43.2-38.4v38.6h10.7v-31.5c3.6-3.2 6.1-1.9 13.1 3.9l4.4-9.7c-2.2-1-4.9-1.9-9-1.9-3.9 0-7 1.9-8.5 3.6l-.5.7v-3.6h-10.2z"/><path fill="#FF7800" d="M216.9 277.3c-.5 0-.7-.2-.7-.7 0-.2.2-.7.7-.7H612v239.8C521.2 388 379.8 298.9 216.9 277.3z"/><path fill="#FF7800" d="M543.8 428.8c4.1-60.4 7.3-58 19.2-69.2 7.5-7 1.2-15.3 32.8-17.5-33.7-2.4-20.1-6.6-33.5-18.7-12.1-11.2-16.3 0-18.2-32-2.2 32.3-4.4 18.2-17.5 31.8-14.3 14.8 1.9 16.5-34.2 19.2 35.7 2.7 21.8 8 33 18.4 13.3 12.6 14.3 6.3 18.4 68z"/><path fill="#FF7901" d="M543.8 428.8c4.1-60.4 7.3-58 19.2-69.2 7.5-6.8 1.2-15 32.8-17.5-33.5-2.4-20.4-6.6-33.5-18.7-12.1-11.2-16 0-18.2-32-2.2 32-4.4 18.2-17.5 31.8-14.1 14.6 1.7 16.5-34.5 19.2 35.7 2.7 21.8 8 33 18.4 13.6 12.4 14.6 6.3 18.7 68z"/><path fill="#FF7902" d="M543.8 428.8c4.1-60.2 7.3-58.2 19.2-69.2 7.5-6.8 1.2-15 32.8-17.5-33.5-2.4-20.4-6.6-33.5-18.7-12.1-11.2-16-.2-18.2-32.3-2.2 32-4.4 18.4-17.5 31.8-14.1 14.6 1.7 16.5-34.5 18.9 35.4 2.7 21.8 8 33 18.2 13.6 13.2 14.6 7.1 18.7 68.8z"/><path fill="#FF7A03" d="M543.8 428.8c4.1-60.2 7-58.2 18.9-69.2 7.5-6.8 1.5-15 32.8-17.5-33.5-2.4-20.4-6.6-33.7-18.7-12.1-11.2-16-.2-18.2-32.3-2.2 32-4.4 18.4-17.5 31.8-14.1 14.6 1.7 16.3-34.5 18.9 35.4 2.7 21.8 8 33 18.2 14.4 13.2 15.1 7.4 19.2 68.8z"/><path fill="#FF7A04" d="M543.8 428.8c4.1-59.9 7-58.2 18.9-69.2 7.5-6.8 1.5-15 32.8-17.2-33.5-2.4-20.6-6.6-33.7-18.7-12.1-10.9-16-.2-18.2-32.3-2.2 32-4.4 18.4-17.2 31.8-14.1 14.6 1.5 16.3-34.5 18.9 35.4 2.7 22.1 8 33 18.2 14.1 12.6 14.8 7.1 18.9 68.5z"/><path fill="#FF7B05" d="M543.8 428.8c4.1-59.9 7-58.2 18.9-69.4 7.5-6.8 1.5-15 32.8-17.2-33.5-2.4-20.6-6.6-33.7-18.4-12.1-10.9-16-.5-18-32.3-2.2 32-4.4 18.7-17.2 32-14.1 14.6 1.5 16.3-34.5 18.9 35.4 2.7 22.1 8 33 18.2 13.9 12.3 14.6 6.8 18.7 68.2z"/><path fill="#FF7B06" d="M543.8 428.8c4.1-59.9 7-58.5 18.9-69.4 7.3-6.8 1.7-15 32.8-17.2-33.2-2.4-20.6-6.6-33.7-18.4-11.9-10.9-15.8-.5-18-32.3-2.2 31.8-4.4 18.7-17.2 32-14.1 14.6 1.2 16.3-34.5 18.9 35.2 2.7 22.1 7.8 33.2 18.2 13.7 12.3 14.4 7 18.5 68.2z"/><path fill="#FF7C07" d="M543.8 428.8c4.1-59.7 7-58.5 18.9-69.4 7.3-6.8 1.7-14.8 33-17.2-33.2-2.4-20.6-6.6-33.7-18.4-11.9-10.9-15.8-.5-18-32.3-2.2 31.8-4.4 18.7-17.2 32-14.1 14.3 1.2 16.3-34.5 18.7 35.2 2.7 22.1 7.8 33.2 18 13.5 12.5 14.2 7.4 18.3 68.6z"/><path fill="#FF7C08" d="M543.8 428.8c4.1-59.7 7-58.5 18.7-69.4 7.3-6.8 1.9-14.8 33-17.2-33.2-2.4-20.9-6.6-33.7-18.4-11.9-10.9-15.8-.7-18-32.5-2.2 31.8-4.4 18.9-17.2 32-13.8 14.3 1.2 16-34.7 18.7 35.2 2.7 22.3 7.8 33.2 18 13.9 12.7 14.6 7.6 18.7 68.8z"/><path fill="#FF7D09" d="M543.8 428.8c4.1-59.7 7-58.5 18.7-69.4 7.3-6.8 1.9-14.8 33-17-33.2-2.4-20.9-6.6-34-18.4-11.9-10.9-15.8-.7-18-32.5-2.2 31.8-4.4 18.9-17.2 32-13.8 14.3 1 16-34.7 18.7 34.9 2.7 22.3 7.8 33.2 18 14.2 12.5 14.9 7.7 19 68.6z"/><path fill="#FF7D0A" d="M543.8 428.8c4.1-59.5 7-58.7 18.7-69.4 7.3-6.8 1.9-14.8 33-17-33.2-2.4-20.9-6.3-34-18.2-11.9-10.9-15.8-1-17.7-32.5-2.2 31.8-4.4 18.9-17 32-13.8 14.3 1 16-34.7 18.7 34.9 2.7 22.3 7.8 33.2 18 13.7 12.1 14.4 7.5 18.5 68.4z"/><path fill="#FF7E0B" d="M543.8 428.8c4.1-59.5 7-58.7 18.7-69.6 7.3-6.8 2.2-14.8 33-17-33-2.4-21.1-6.3-34-18.2-11.9-10.9-15.5-1-17.7-32.5-2.2 31.5-4.4 19.2-17 32.3-13.8 14.3.7 16-34.7 18.7 34.9 2.7 22.6 7.8 33.2 18 13.7 12 14.4 7.4 18.5 68.3z"/><path fill="#FF7E0C" d="M543.8 428.8c4.1-59.5 7-58.7 18.7-69.6 7.3-6.8 2.2-14.6 33-17-33-2.4-21.1-6.3-34-18.2-11.9-10.9-15.5-1-17.7-32.5-2.2 31.5-4.4 19.2-17 32.3-13.8 14.3.7 16-34.7 18.4 34.9 2.7 22.6 7.8 33.5 17.7 13.4 12.6 14.1 8.2 18.2 68.9z"/><path fill="#FF7F0D" d="M543.8 428.5c4.1-59.2 7-59 18.4-69.6 7.3-6.8 2.2-14.6 33.2-17-33-2.4-21.1-6.3-34-18.2-11.6-10.7-15.5-1.2-17.7-32.5-2.2 31.5-4.4 19.2-17 32.3-13.8 14.1.7 15.8-34.7 18.4 34.7 2.7 22.6 7.8 33.5 17.7 13.5 12.6 14.2 8.5 18.3 68.9z"/><path fill="#FF7F0E" d="M543.8 428.5c3.9-59.2 6.8-59 18.4-69.6 7.3-6.8 2.4-14.6 33.2-16.7-33-2.4-21.4-6.3-34-18-11.6-10.7-15.5-1.2-17.7-32.8-2.2 31.5-4.4 19.4-17 32.3-13.6 14.1.5 15.8-34.7 18.4 34.7 2.7 22.6 7.8 33.5 17.7 13.5 12.4 14.2 8.3 18.3 68.7z"/><path fill="#FF800F" d="M543.8 428.5c3.9-59.2 6.8-59 18.4-69.6 7.3-6.8 2.4-14.6 33.2-16.7-33-2.4-21.4-6.3-34.2-18-11.6-10.7-15.5-1.2-17.5-32.8-2.2 31.5-4.4 19.4-16.7 32.3-13.6 14.1.5 15.8-34.9 18.4 34.7 2.7 22.8 7.5 33.5 17.7 13.4 12.2 14.1 8.5 18.2 68.7z"/><path fill="#FF8010" d="M543.8 428.5c3.9-59 6.8-59 18.4-69.6 7.3-6.8 2.7-14.6 33.2-16.7-32.8-2.4-21.4-6.3-34.2-18-11.6-10.7-15.3-1.5-17.5-32.8-2.2 31.3-4.4 19.4-16.7 32.5-13.6 14.1.5 15.8-34.9 18.4 34.7 2.7 22.8 7.5 33.5 17.5 13.4 12.2 14.1 8.5 18.2 68.7z"/><path fill="#FF8111" d="M543.8 428.5c3.9-59 6.8-59.2 18.4-69.9 7.3-6.8 2.7-14.6 33.2-16.7-32.8-2.4-21.6-6.3-34.2-18-11.6-10.7-15.3-1.5-17.5-32.8-2.2 31.3-4.1 19.7-16.7 32.5-13.6 14.1.2 15.8-34.9 18.2 34.5 2.4 22.8 7.5 33.5 17.5 13.4 12.7 14.1 9 18.2 69.2z"/><path fill="#FF8212" d="M543.8 428.5c3.9-59 6.8-59.2 18.2-69.9 7.3-6.8 2.7-14.3 33.2-16.7-32.8-2.4-21.6-6.3-34.2-18-11.6-10.7-15.3-1.5-17.5-32.8-2.2 31.3-4.1 19.7-16.7 32.5-13.6 14.1.2 15.5-34.9 18.2 34.5 2.4 22.8 7.5 33.7 17.5 13.4 12.4 14.1 9.3 18.2 69.2z"/><path fill="#FF8213" d="M543.8 428.5c3.9-58.7 6.8-59.2 18.2-69.9 7.3-6.8 2.9-14.3 33.5-16.5-32.8-2.4-21.6-6.3-34.2-17.7-11.6-10.7-15.3-1.7-17.5-32.8-2.2 31.3-4.1 19.7-16.7 32.5-13.6 13.8 0 15.5-34.9 18.2 34.5 2.4 23.1 7.5 33.7 17.5 13.1 11.9 13.8 8.8 17.9 68.7z"/><path fill="#FF8314" d="M543.8 428.5c3.9-58.7 6.8-59.2 18.2-69.9 7.3-6.8 2.9-14.3 33.5-16.5-32.8-2.4-21.6-6.3-34.2-17.7-11.6-10.7-15.3-1.7-17.2-33-2.2 31.3-4.1 19.9-16.5 32.5-13.3 13.8 0 15.5-34.9 18.2 34.2 2.4 23.1 7.5 33.7 17.5 12.6 12.1 13.5 9 17.4 68.9z"/><path fill="#FF8315" d="M543.8 428.5c3.9-58.5 6.8-59.5 18.2-69.9 7.3-6.8 2.9-14.3 33.5-16.5-32.5-2.4-21.8-6.3-34.2-17.7-11.4-10.4-15.3-1.7-17.2-33-2.2 31.3-4.1 19.9-16.5 32.5-13.3 13.8 0 15.5-34.9 18 34.2 2.4 23.1 7.5 33.7 17.2 12.8 12.4 13.5 9.7 17.4 69.4z"/><path fill="#FF8416" d="M543.8 428.5c3.9-58.5 6.8-59.5 18-69.9 7.3-6.6 3.2-14.3 33.5-16.5-32.5-2.4-21.8-6.3-34.5-17.7-11.4-10.4-15-1.9-17.2-33-2.2 31.1-4.1 19.9-16.5 32.8-13.3 13.8-.2 15.5-35.2 18 34.2 2.4 23.1 7.5 33.7 17.2 13.6 12.1 14.3 9.4 18.2 69.1z"/><path fill="#FF8417" d="M543.8 428.5c3.9-58.5 6.8-59.5 18-69.9 7.3-6.6 3.2-14.1 33.5-16.5-32.5-2.4-21.8-6.1-34.5-17.7-11.4-10.4-15-1.9-17.2-33-2.2 31.1-4.1 19.9-16.5 32.8-13.3 13.8-.2 15.3-35.2 18 34.2 2.4 23.3 7.5 33.7 17.2 13.6 12.1 14.3 9.4 18.2 69.1z"/><path fill="#FF8518" d="M543.8 428.5c3.9-58.2 6.8-59.5 18-70.1 7.3-6.6 3.4-14.1 33.5-16.3-32.5-2.4-22.1-6.1-34.5-17.5-11.4-10.4-15-1.9-17.2-33-2.2 31.1-4.1 20.1-16.5 32.8-13.3 13.6-.5 15.3-35.2 18 34 2.4 23.3 7.3 34 17.2 13.3 11.6 14 9.5 17.9 68.9z"/><path fill="#FF8519" d="M543.8 428.5c3.9-58.2 6.6-59.7 18-70.1 7-6.6 3.4-14.1 33.7-16.3-32.3-2.4-22.1-6.1-34.5-17.5-11.4-10.4-15-2.2-17-33.2-2.2 31.1-4.1 20.1-16.3 32.8-13.3 13.6-.5 15.3-35.2 18 34 2.4 23.3 7.3 34 17.2 12.7 11.8 13.4 9.7 17.3 69.1z"/><path fill="#FF861A" d="M543.8 428.5c3.9-58.2 6.6-59.7 18-70.1 7-6.6 3.4-14.1 33.7-16.3-32.3-2.4-22.1-6.1-34.5-17.5-11.4-10.4-15-2.2-17-33.2-2.2 31.1-4.1 20.1-16.3 32.8-13.1 13.6-.5 15.3-35.2 17.7 34 2.4 23.5 7.3 34 17 12.7 12.3 13.4 10.2 17.3 69.6z"/><path fill="#FF861B" d="M543.8 428.5c3.9-58 6.6-59.7 17.7-70.1 7-6.6 3.6-14.1 33.7-16.3-32.3-2.4-22.3-6.1-34.5-17.5-11.4-10.4-14.8-2.2-17-33.2-2.2 30.8-4.1 20.4-16.3 32.8-13.1 13.6-.7 15.3-35.2 17.7 33.7 2.4 23.5 7.3 34 17 13 12.1 13.7 10.4 17.6 69.6z"/><path fill="#FF871C" d="M543.8 428.5c3.9-58 6.6-59.9 17.7-70.1 7-6.6 3.6-14.1 33.7-16.3-32.3-2.4-22.3-6.1-34.7-17.2-11.4-10.4-14.8-2.4-17-33.2-2.2 30.8-4.1 20.4-16.3 33-13.1 13.6-.7 15-35.4 17.7 33.7 2.4 23.5 7.3 34 17 13.4 11.6 14.1 9.9 18 69.1z"/><path fill="#FF871D" d="M543.8 428.5c3.9-58 6.6-59.9 17.7-70.1 7-6.6 3.6-13.8 33.7-16-32.3-2.4-22.3-6.1-34.7-17.2-11.2-10.4-14.8-2.4-17-33.2-2.2 30.8-4.1 20.4-16.3 33-13.1 13.6-.7 15-35.4 17.7 33.7 2.4 23.5 7.3 34 17 13.4 11.3 14.1 9.6 18 68.8z"/><path fill="#FF881E" d="M543.8 428.5c3.9-57.8 6.6-59.9 17.7-70.4 7-6.6 3.9-13.8 33.7-16-32-2.4-22.3-6.1-34.7-17.2-11.2-10.2-14.8-2.7-16.7-33.2-2.2 30.8-4.1 20.6-16 33-13.1 13.3-1 15-35.4 17.7 33.7 2.4 23.8 7.3 34 16.7 12.8 11.7 13.5 10.4 17.4 69.4z"/><path fill="#FF881F" d="M543.8 428.5c3.9-57.8 6.6-59.9 17.7-70.4 7-6.6 3.9-13.8 34-16-32-2.4-22.6-6.1-34.7-17.2-11.2-10.2-14.8-2.7-16.7-33.5-2.2 30.8-4.1 20.6-16 33-13.1 13.3-1 15-35.4 17.5 33.5 2.4 23.8 7.3 34.2 16.7 12.3 12.2 13 10.9 16.9 69.9z"/><path fill="#FF8920" d="M543.8 428.5c3.9-57.8 6.6-60.2 17.5-70.4 7-6.6 4.1-13.8 34-16-32-2.4-22.6-6.1-34.7-17.2-11.2-10.2-14.6-2.7-16.7-33.5-2.2 30.6-4.1 20.6-16 33-12.9 13.3-1.2 15-35.4 17.5 33.5 2.4 23.8 7.3 34.2 16.7 12.5 11.9 13.2 10.9 17.1 69.9z"/><path fill="#FF8921" d="M543.8 428.5c3.9-57.5 6.6-60.2 17.5-70.4 7-6.6 4.1-13.8 34-16-32-2.4-22.6-6.1-34.7-17-11.2-10.2-14.6-2.9-16.7-33.5-2.2 30.6-4.1 20.9-16 33-12.9 13.3-1.2 14.8-35.4 17.5 33.5 2.4 23.8 7 34.2 16.7 12.5 11.7 13.2 11 17.1 69.7z"/><path fill="#FF8A22" d="M543.8 428.5c3.9-57.5 6.6-60.2 17.5-70.4 7-6.6 4.1-13.6 34-15.8-32-2.4-22.8-6.1-34.7-17-11.2-10.2-14.6-2.9-16.7-33.5-2.2 30.6-4.1 20.9-16 33.2-12.9 13.3-1.2 14.8-35.4 17.5 33.5 2.4 24 7 34.2 16.7 12.5 11.3 13.2 10.6 17.1 69.3z"/><path fill="#FF8B23" d="M543.8 428.5c3.9-57.5 6.3-60.2 17.5-70.4 7-6.6 4.4-13.6 34-15.8-31.8-2.4-22.8-6.1-34.9-17-11.2-10.2-14.6-2.9-16.5-33.5-2.2 30.6-4.1 20.9-15.8 33.2-12.9 13.3-1.5 14.8-35.7 17.2 33.2 2.4 24 7 34.2 16.5 12.6 11.6 13.3 11.1 17.2 69.8z"/><path fill="#FF8B24" d="M543.8 428.5c3.9-57.3 6.3-60.4 17.5-70.6 7-6.6 4.4-13.6 34-15.8-31.8-2.4-22.8-5.8-34.9-17-11.2-10.2-14.6-3.2-16.5-33.5-1.9 30.6-4.1 21.1-15.8 33.2-12.9 13.1-1.5 14.8-35.7 17.2 33.2 2.4 24 7 34.2 16.5 12.6 11.8 13.3 11.5 17.2 70z"/><path fill="#FF8C25" d="M543.8 428.5c3.9-57.3 6.3-60.4 17.2-70.6 7-6.6 4.4-13.6 34.2-15.8-31.8-2.4-23.1-5.8-34.9-17-10.9-10.2-14.3-3.2-16.5-33.7-1.9 30.3-4.1 21.1-15.8 33.2-12.9 13.1-1.7 14.8-35.7 17.2 33.2 2.4 24.3 7 34.5 16.5 12.4 12 13.1 11.7 17 70.2z"/><path fill="#FF8C26" d="M543.8 428.3c3.9-57 6.3-60.4 17.2-70.6 7-6.6 4.6-13.6 34.2-15.8-31.8-2.4-23.1-5.8-34.9-16.7-10.9-9.9-14.3-3.2-16.5-33.7-1.9 30.3-3.9 21.1-15.8 33.2-12.6 13.1-1.7 14.6-35.7 17.2 33 2.4 24.3 7 34.5 16.5 12.4 11.6 13.1 11.6 17 69.9z"/><path fill="#FF8D27" d="M543.8 428.3c3.9-57 6.3-60.7 17.2-70.6 7-6.6 4.6-13.3 34.2-15.5-31.8-2.4-23.1-5.8-34.9-16.7-10.9-9.9-14.3-3.4-16.5-33.7-1.9 30.3-3.9 21.4-15.8 33.2-12.6 13.1-1.7 14.6-35.7 17.2 33 2.4 24.3 7 34.5 16.5 12.6 11.3 13.1 11.6 17 69.6z"/><path fill="#FF8D28" d="M543.8 428.3c3.9-57 6.3-60.7 17.2-70.6 7-6.6 4.9-13.3 34.2-15.5-31.5-2.4-23.3-5.8-34.9-16.7-10.9-9.9-14.3-3.4-16.3-33.7-1.9 30.3-3.9 21.4-15.5 33.5-12.6 13.1-1.9 14.6-35.7 17 33 2.4 24.3 7 34.5 16.3 12.1 11.4 12.6 11.7 16.5 69.7z"/><path fill="#FF8E29" d="M543.8 428.3c3.9-56.8 6.3-60.7 17-70.6 7-6.6 4.9-13.3 34.2-15.5-31.5-2.4-23.3-5.8-35.2-16.7-10.9-9.9-14.3-3.4-16.3-33.7-1.9 30.3-3.9 21.4-15.5 33.5-12.6 13.1-1.9 14.6-35.9 17 33 2.4 24.5 7 34.5 16.3 12.8 11.2 13.3 11.7 17.2 69.7z"/><path fill="#FF8E2A" d="M543.8 428.3c3.9-56.8 6.3-60.7 17-70.6 7-6.6 4.9-13.3 34.2-15.5-31.5-2.4-23.3-5.8-35.2-16.5-10.9-9.9-14.3-3.6-16.3-33.7-1.9 30.1-3.9 21.6-15.5 33.5-12.6 12.9-1.9 14.6-35.9 17 32.8 2.4 24.5 6.8 34.5 16.3 12.8 11 13.3 11.7 17.2 69.5z"/><path fill="#FF8F2B" d="M543.8 428.3c3.9-56.8 6.3-60.9 17-70.9 7-6.3 5.1-13.3 34.5-15.5-31.5-2.4-23.5-5.8-35.2-16.5-10.9-9.9-14.1-3.6-16.3-34-1.9 30.1-3.9 21.6-15.5 33.5-12.6 12.9-2.2 14.3-35.9 17 32.8 2.4 24.5 6.8 34.7 16.3 12.3 11.6 12.8 12.3 16.7 70.1z"/><path fill="#FF8F2C" d="M543.8 428.3c3.9-56.5 6.3-60.9 17-70.9 7-6.3 5.1-13.3 34.5-15.3-31.5-2.4-23.5-5.8-35.2-16.5-10.9-9.9-14.1-3.6-16.3-34-1.9 30.1-3.9 21.6-15.5 33.5-12.4 12.9-2.2 14.3-35.9 17 32.8 2.4 24.5 6.8 34.7 16 12.3 11.4 12.8 12.4 16.7 70.2z"/><path fill="#FF902D" d="M543.8 428.3c3.9-56.5 6.3-60.9 17-70.9 6.8-6.3 5.1-13.1 34.5-15.3-31.3-2.4-23.5-5.8-35.2-16.5-10.7-9.9-14.1-3.9-16-34-1.9 30.1-3.9 21.8-15.5 33.5-12.4 12.9-2.4 14.3-35.9 16.7 32.8 2.4 24.8 6.8 34.7 16 12 11.7 12.5 13 16.4 70.5z"/><path fill="#FF902E" d="M543.8 428.3c3.9-56.5 6.1-60.9 16.7-70.9 6.8-6.3 5.3-13.1 34.5-15.3-31.3-2.4-23.5-5.8-35.2-16.5-10.7-9.9-14.1-3.9-16-34-1.9 30.1-3.9 21.8-15.3 33.7-12.4 12.9-2.4 14.3-35.9 16.7 32.5 2.4 24.8 6.8 34.7 16 12.1 11.5 12.6 12.8 16.5 70.3z"/><path fill="#FF912F" d="M543.8 428.3c3.9-56.3 6.1-61.2 16.7-70.9 6.8-6.3 5.3-13.1 34.5-15.3-31.3-2.4-23.8-5.8-35.4-16.3-10.7-9.7-14.1-3.9-16-34-1.9 30.1-3.9 21.8-15.3 33.7-12.4 12.9-2.4 14.3-35.9 16.7 32.5 2.4 24.8 6.8 34.7 16 12.3 11.1 12.8 12.6 16.7 70.1z"/><path fill="#FF9130" d="M543.8 428.3c3.9-56.3 6.1-61.2 16.7-70.9 6.8-6.3 5.6-13.1 34.5-15.3-31.3-2.4-23.8-5.8-35.4-16.3-10.7-9.7-13.8-4.1-16-34-1.9 29.8-3.9 22.1-15.3 33.7-12.4 12.6-2.7 14.3-36.2 16.7 32.5 2.4 25 6.8 34.7 16 12.6 11.1 13.1 12.8 17 70.1z"/><path fill="#FF9231" d="M543.8 428.3c3.9-56.3 6.1-61.2 16.7-71.1 6.8-6.3 5.6-13.1 34.7-15-31.3-2.2-23.8-5.6-35.4-16.3-10.7-9.7-13.8-4.1-16-34.2-1.9 29.8-3.9 22.1-15.3 33.7-12.4 12.6-2.7 14.1-36.2 16.5 32.3 2.4 25 6.8 34.9 15.8 12.2 11.4 12.7 13.3 16.6 70.6z"/><path fill="#FF9232" d="M543.8 428.3c3.9-56.1 6.1-61.2 16.7-71.1 6.8-6.3 5.6-12.9 34.7-15-31.1-2.2-24-5.6-35.4-16.3-10.7-9.7-13.8-4.4-15.8-34.2-1.9 29.8-3.9 22.1-15.3 33.7-12.1 12.6-2.9 14.1-36.2 16.5 32.3 2.4 25 6.8 34.9 15.8 12 11.4 12.5 13.3 16.4 70.6z"/><path fill="#FF9333" d="M543.8 428.3c3.9-56.1 6.1-61.4 16.5-71.1 6.8-6.3 5.8-12.9 34.7-15-31.1-2.2-24-5.6-35.4-16.3-10.7-9.7-13.8-4.4-15.8-34.2-1.9 29.8-3.9 22.3-15 33.7-12.1 12.6-2.9 14.1-36.2 16.5 32.3 2.4 25 6.6 34.9 15.8 11.9 11.4 12.4 13.5 16.3 70.6z"/><path fill="#FF9434" d="M543.8 428.3c3.9-56.1 6.1-61.4 16.5-71.1 6.8-6.3 5.8-12.9 34.7-15-31.1-2.2-24-5.6-35.4-16-10.7-9.7-13.8-4.4-15.8-34.2-1.9 29.8-3.9 22.3-15 34-12.1 12.6-2.9 14.1-36.2 16.5 32.3 2.4 25.2 6.6 34.9 15.8 11.9 10.5 12.4 12.9 16.3 70z"/><path fill="#FF9435" d="M543.8 428.3c3.9-55.8 6.1-61.4 16.5-71.1 6.8-6.3 5.8-12.9 34.7-15-31.1-2.2-24.3-5.6-35.7-16-10.4-9.7-13.6-4.6-15.8-34.2-1.9 29.6-3.9 22.3-15 34-12.1 12.6-3.2 14.1-36.2 16.5 32 2.4 25.2 6.6 34.9 15.8 12.2 10.5 12.7 12.9 16.6 70z"/><path fill="#FF9536" d="M543.8 428.3c3.9-55.8 6.1-61.6 16.5-71.1 6.8-6.3 6.1-12.9 34.7-14.8-31.1-2.2-24.3-5.6-35.7-16-10.4-9.7-13.6-4.6-15.8-34.2-1.9 29.6-3.9 22.3-15 34-12.1 12.4-3.2 13.8-36.2 16.3 32 2.4 25.2 6.6 34.9 15.5 12.2 10.8 12.7 13.5 16.6 70.3z"/><path fill="#FF9537" d="M543.8 428.3c3.9-55.6 6.1-61.6 16.5-71.3 6.8-6.3 6.1-12.9 34.9-14.8-30.8-2.2-24.3-5.6-35.7-16-10.4-9.7-13.6-4.6-15.5-34.5-1.9 29.6-3.9 22.6-15 34-12.1 12.4-3.2 13.8-36.4 16.3 32 2.4 25.2 6.6 34.9 15.5 11.9 11.1 12.4 14 16.3 70.8z"/><path fill="#FF9638" d="M543.8 428.3c3.6-55.6 6.1-61.6 16.3-71.3 6.8-6.3 6.3-12.6 34.9-14.8-30.8-2.2-24.3-5.6-35.7-15.8-10.4-9.5-13.6-4.9-15.5-34.5-1.9 29.6-3.9 22.6-14.8 34-11.9 12.4-3.4 13.8-36.4 16.3 32 2.4 25.5 6.6 35.2 15.5 11.6 10.9 12.1 13.8 16 70.6z"/><path fill="#FF9639" d="M543.8 428.3c3.6-55.6 5.8-61.6 16.3-71.3 6.8-6.3 6.3-12.6 34.9-14.8-30.8-2.2-24.5-5.6-35.7-15.8-10.4-9.5-13.6-4.9-15.5-34.5-1.9 29.6-3.9 22.6-14.8 34.2-11.9 12.4-3.4 13.8-36.4 16.3 31.8 2.4 25.5 6.6 35.2 15.5 11.6 10.7 12.1 13.8 16 70.4z"/><path fill="#FF973A" d="M543.8 428.3c3.6-55.3 5.8-61.9 16.3-71.3 6.8-6.3 6.3-12.6 34.9-14.8-30.8-2.2-24.5-5.6-35.7-15.8-10.4-9.5-13.3-4.9-15.5-34.5-1.9 29.4-3.9 22.8-14.8 34.2-11.9 12.4-3.6 13.8-36.4 16.3 31.8 2.4 25.5 6.6 35.2 15.3 11.9 10.6 12.1 14 16 70.6z"/><path fill="#FF973B" d="M543.8 428.3c3.6-55.3 5.8-61.9 16.3-71.3 6.8-6.3 6.6-12.6 34.9-14.6-30.6-2.2-24.5-5.6-35.7-15.8-10.4-9.5-13.3-5.1-15.5-34.5-1.9 29.4-3.9 22.8-14.8 34.2-11.9 12.4-3.6 13.6-36.4 16 31.8 2.4 25.7 6.6 35.2 15.3 11.9 10.7 12.1 14.1 16 70.7z"/><path fill="#FF983C" d="M543.8 428.3c3.6-55.3 5.8-61.9 16-71.3 6.8-6.3 6.6-12.6 34.9-14.6-30.6-2.2-24.8-5.6-35.9-15.8-10.2-9.5-13.3-5.1-15.3-34.7-1.9 29.4-3.6 22.8-14.8 34.2-11.9 12.1-3.6 13.6-36.4 16 31.5 2.4 25.7 6.6 35.2 15.3 12.2 10.9 12.4 14.6 16.3 70.9z"/><path fill="#FF983D" d="M543.8 428.3c3.6-55.1 5.8-61.9 16-71.6 6.8-6.3 6.6-12.4 35.2-14.6-30.6-2.2-24.8-5.3-35.9-15.5-10.2-9.5-13.3-5.1-15.3-34.7-1.9 29.4-3.6 23.1-14.6 34.2-11.9 12.1-3.9 13.6-36.6 16 31.5 2.4 25.7 6.3 35.2 15.3 11.9 10.7 12.4 14.6 16 70.9z"/><path fill="#FF993E" d="M543.8 428c3.6-55.1 5.8-62.1 16-71.6 6.8-6.3 6.8-12.4 35.2-14.6-30.6-2.2-24.8-5.3-35.9-15.5-10.2-9.5-13.3-5.3-15.3-34.7-1.9 29.4-3.6 23.1-14.6 34.2-11.6 12.1-3.9 13.6-36.6 16 31.5 2.4 25.7 6.3 35.4 15.3 11.7 11 12.2 14.9 15.8 70.9z"/><path fill="#FF993F" d="M543.8 428c3.6-55.1 5.8-62.1 16-71.6 6.8-6.3 6.8-12.4 35.2-14.6-30.6-2.2-25-5.3-35.9-15.5-10.2-9.5-13.3-5.3-15.3-34.7-1.9 29.1-3.6 23.1-14.6 34.5-11.6 12.1-4.1 13.6-36.6 15.8 31.5 2.4 26 6.3 35.4 15 11.7 11.2 12.2 15.3 15.8 71.1z"/><path fill="#FF9A40" d="M543.8 428c3.6-54.8 5.8-62.1 16-71.6 6.8-6.1 7-12.4 35.2-14.3-30.3-2.2-25-5.3-35.9-15.5-10.2-9.2-13.1-5.3-15.3-34.7-1.9 29.1-3.6 23.3-14.6 34.5-11.6 12.1-4.1 13.3-36.6 15.8 31.3 2.4 26 6.3 35.4 15 11.7 10.7 12.2 15 15.8 70.8z"/><path fill="#FF9A41" d="M543.8 428c3.6-54.8 5.8-62.4 15.8-71.6 6.6-6.1 7-12.4 35.2-14.3-30.3-2.2-25-5.3-35.9-15.5-10.2-9.2-13.1-5.6-15-34.7-1.9 29.1-3.6 23.3-14.6 34.5-11.6 11.9-4.1 13.3-36.6 15.8 31.3 2.4 26 6.3 35.4 15 11.6 10.7 12.1 15 15.7 70.8z"/><path fill="#FF9B42" d="M543.8 428c3.6-54.8 5.8-62.4 15.8-71.6 6.6-6.1 7-12.1 35.2-14.3-30.3-2.2-25.2-5.3-36.2-15.3-10.2-9.2-13.1-5.6-15-34.9-1.9 29.1-3.6 23.3-14.3 34.5-11.6 11.9-4.4 13.3-36.6 15.8 31.3 2.4 26 6.3 35.4 15 11.6 10.4 12.1 15.3 15.7 70.8z"/><path fill="#FF9B43" d="M543.8 428c3.6-54.6 5.8-62.4 15.8-71.6 6.6-6.1 7.3-12.1 35.4-14.3-30.3-2.2-25.2-5.3-36.2-15.3-10.2-9.2-13.1-5.6-15-34.9-1.9 29.1-3.6 23.5-14.3 34.5-11.6 11.9-4.4 13.3-36.6 15.8 31.3 2.2 26.2 6.3 35.4 15 11.4 10.4 11.9 15.3 15.5 70.8z"/><path fill="#FF9C44" d="M543.8 428c3.6-54.6 5.6-62.4 15.8-71.8 6.6-6.1 7.3-12.1 35.4-14.3-30.3-2.2-25.2-5.3-36.2-15.3-10.2-9.2-13.1-5.8-15-34.9-1.9 29.1-3.6 23.5-14.3 34.5-11.4 11.9-4.4 13.3-36.9 15.5 31.1 2.2 26.2 6.3 35.7 14.8 11.4 11.1 11.9 16 15.5 71.5z"/><path fill="#FF9D45" d="M543.8 428c3.6-54.6 5.6-62.6 15.8-71.8 6.6-6.1 7.3-12.1 35.4-14.1-30.1-2.2-25.2-5.3-36.2-15.3-9.9-9.2-12.9-5.8-15-34.9-1.9 28.9-3.6 23.5-14.3 34.7-11.4 11.9-4.6 13.1-36.9 15.5 31.1 2.2 26.2 6.1 35.7 14.8 11.4 10.5 11.9 15.8 15.5 71.1z"/><path fill="#FF9D46" d="M543.8 428c3.6-54.4 5.6-62.6 15.5-71.8 6.6-6.1 7.5-12.1 35.4-14.1-30.1-2.2-25.5-5.3-36.2-15-10-9.2-12.9-6.1-14.8-34.9-1.9 28.9-3.6 23.8-14.3 34.7-11.4 11.9-4.6 13.1-36.9 15.5 31.1 2.2 26.5 6.1 35.7 14.8 11.5 10.2 12 15.5 15.6 70.8z"/><path fill="#FF9E47" d="M543.8 428c3.6-54.4 5.6-62.6 15.5-71.8 6.6-6.1 7.5-12.1 35.4-14.1-30.1-2.2-25.5-5.3-36.2-15-10-9.2-12.9-6.1-14.8-34.9-1.9 28.9-3.6 23.8-14.1 34.7-11.4 11.6-4.9 13.1-36.9 15.5 30.8 2.2 26.5 6.1 35.7 14.8 11.3 10.2 11.8 15.5 15.4 70.8z"/><path fill="#FF9E48" d="M543.8 428c3.6-54.1 5.6-62.6 15.5-71.8 6.6-6.1 7.5-11.9 35.4-14.1-30.1-2.2-25.5-5.3-36.2-15-10-9.2-12.9-6.1-14.8-35.2-1.9 28.9-3.6 23.8-14.1 34.7-11.4 11.6-4.9 13.1-36.9 15.5 30.8 2.2 26.5 6.1 35.7 14.6 11.3 10.4 11.8 16.2 15.4 71.3z"/><path fill="#FF9F49" d="M543.8 428c3.6-54.1 5.6-62.8 15.5-71.8 6.6-6.1 7.8-11.9 35.7-14.1-30.1-2.2-25.7-5.3-36.4-15-9.9-9-12.9-6.3-14.8-35.2-1.9 28.9-3.6 24-14.1 34.7-11.4 11.6-4.9 13.1-36.9 15.3 30.8 2.2 26.5 6.1 35.7 14.6 11.2 10.6 11.7 16.4 15.3 71.5z"/><path fill="#FF9F4A" d="M543.8 428c3.6-54.1 5.6-62.8 15.5-72.1 6.6-6.1 7.8-11.9 35.7-13.8-29.8-2.2-25.7-5.1-36.4-15-9.9-9-12.6-6.3-14.8-35.2-1.9 28.6-3.6 24-14.1 34.7-11.2 11.6-5.1 12.9-36.9 15.3 30.8 2.2 26.7 6.1 35.9 14.6 11 10.6 11.5 16.4 15.1 71.5z"/><path fill="#FFA04B" d="M543.8 428c3.6-53.9 5.6-62.8 15.3-72.1 6.6-6.1 8-11.9 35.7-13.8-29.8-2.2-25.7-5.1-36.4-14.8-9.9-9-12.6-6.3-14.6-35.2-1.9 28.6-3.6 24-14.1 34.9-11.2 11.6-5.1 12.9-37.1 15.3 30.6 2.2 26.7 6.1 35.9 14.6 11.4 10 11.7 16.3 15.3 71.1z"/><path fill="#FFA04C" d="M543.8 428c3.6-53.9 5.6-63.1 15.3-72.1 6.6-6.1 8-11.9 35.7-13.8-29.8-2.2-26-5.1-36.4-14.8-9.7-9-12.6-6.6-14.6-35.2-1.9 28.6-3.6 24.3-13.8 34.9-11.2 11.6-5.3 12.9-37.1 15.3 30.6 2.2 26.7 6.1 35.9 14.6 11.1 10 11.4 16.3 15 71.1z"/><path fill="#FFA14D" d="M543.8 428c3.6-53.9 5.6-63.1 15.3-72.1 6.6-6.1 8-11.6 35.7-13.8-29.8-2.2-26-5.1-36.4-14.8-9.7-9-12.6-6.6-14.6-35.2-1.9 28.6-3.6 24.3-13.8 34.9-11.2 11.4-5.3 12.9-37.1 15 30.6 2.2 26.7 6.1 35.9 14.3 11.1 10.6 11.4 16.9 15 71.7z"/><path fill="#FFA14E" d="M543.8 428c3.6-53.6 5.6-63.1 15.3-72.1 6.6-6.1 8.2-11.6 35.7-13.8-29.8-2.2-26-5.1-36.4-14.8-9.7-9-12.6-6.6-14.6-35.4-1.9 28.6-3.6 24.3-13.8 34.9-11.2 11.4-5.3 12.9-37.1 15 30.6 2.2 26.9 5.8 35.9 14.3 11.1 10.5 11.4 17.3 15 71.9z"/><path fill="#FFA24F" d="M543.8 428c3.6-53.6 5.3-63.1 15-72.1 6.6-6.1 8.3-11.6 35.9-13.6-29.6-2.2-26.2-5.1-36.6-14.6-9.7-9-12.6-6.8-14.6-35.4-1.9 28.4-3.6 24.5-13.8 34.9-11.2 11.4-5.6 12.6-37.1 15 30.3 2.2 26.9 5.8 35.9 14.3 11.4 10.1 11.7 16.9 15.3 71.5z"/><path fill="#FFA250" d="M543.8 428c3.6-53.6 5.3-63.3 15-72.3 6.6-6.1 8.3-11.6 35.9-13.6-29.6-2.2-26.2-5.1-36.6-14.6-9.7-9-12.4-6.8-14.3-35.4-1.9 28.4-3.6 24.5-13.8 34.9-10.9 11.4-5.6 12.6-37.1 15 30.3 2.2 26.9 5.8 35.9 14.3 11.1 10.3 11.4 17.1 15 71.7z"/><path fill="#FFA351" d="M543.8 428c3.6-53.4 5.3-63.3 15-72.3 6.6-6.1 8.5-11.6 35.9-13.6-29.6-2.2-26.2-5.1-36.6-14.6-9.7-8.7-12.4-6.8-14.3-35.4-1.9 28.4-3.6 24.5-13.8 35.2-10.9 11.4-5.6 12.6-37.1 15 30.3 2.2 27.2 5.8 36.2 14.3 10.8 9.8 11.1 17.1 14.7 71.4z"/><path fill="#FFA352" d="M543.8 428c3.6-53.4 5.3-63.3 15-72.3 6.6-6.1 8.5-11.6 35.9-13.6-29.6-2.2-26.2-5.1-36.6-14.6-9.7-8.7-12.4-7-14.3-35.4-1.9 28.4-3.4 24.8-13.6 35.2-10.9 11.4-5.8 12.6-37.4 14.8 30.1 2.2 27.2 5.8 36.2 14.1 10.9 10.2 11.2 17.5 14.8 71.8z"/><path fill="#FFA453" d="M543.8 428c3.6-53.4 5.3-63.3 15-72.3 6.6-6.1 8.7-11.4 35.9-13.6-29.6-2.2-26.5-5.1-36.6-14.6-9.7-8.7-12.4-7-14.3-35.4-1.9 28.4-3.4 24.8-13.6 35.2-10.9 11.2-5.8 12.6-37.4 14.8 30.1 2.2 27.2 5.8 36.2 14.1 10.9 10 11.2 17.5 14.8 71.8z"/><path fill="#FFA454" d="M543.8 428c3.6-53.1 5.3-63.6 14.8-72.3 6.3-6.1 8.7-11.4 35.9-13.3-29.4-2.2-26.5-5.1-36.6-14.3-9.7-8.7-12.4-7-14.3-35.7-1.9 28.1-3.4 24.8-13.6 35.2-10.9 11.2-6.1 12.4-37.4 14.8 30.1 2.2 27.2 5.8 36.2 14.1 11.1 9.7 11.4 17.4 15 71.5z"/><path fill="#FFA555" d="M543.8 428c3.6-53.1 5.3-63.6 14.8-72.3 6.3-5.8 8.7-11.4 36.2-13.3-29.4-2.2-26.5-5.1-36.9-14.3-9.5-8.7-12.1-7.3-14.1-35.7-1.9 28.1-3.4 25-13.6 35.2-10.9 11.2-6.1 12.4-37.4 14.8 30.1 2.2 27.4 5.8 36.2 14.1 10.9 9.7 11.2 17.4 14.8 71.5z"/><path fill="#FFA656" d="M543.8 427.8c3.6-52.9 5.3-63.6 14.8-72.3 6.3-5.8 9-11.4 36.2-13.3-29.4-2.2-26.7-5.1-36.9-14.3-9.5-8.7-12.1-7.3-14.1-35.7-1.9 28.1-3.4 25-13.6 35.2-10.7 11.2-6.1 12.4-37.4 14.8 29.8 2.2 27.4 5.8 36.2 13.8 10.9 9.9 11.2 17.9 14.8 71.8z"/><path fill="#FFA657" d="M543.8 427.8c3.6-52.9 5.3-63.6 14.8-72.6 6.3-5.8 9-11.4 36.2-13.3-29.4-2.2-26.7-4.9-36.9-14.3-9.5-8.7-12.1-7.3-14.1-35.7-1.9 28.1-3.4 25-13.3 35.4-10.7 11.2-6.3 12.4-37.4 14.6 29.8 2.2 27.4 5.8 36.4 13.8 10.4 10.2 10.7 18.5 14.3 72.1z"/><path fill="#FFA758" d="M543.8 427.8c3.6-52.9 5.3-63.8 14.8-72.6 6.3-5.8 9-11.2 36.2-13.3-29.1-2.2-26.7-4.9-36.9-14.3-9.5-8.7-12.1-7.5-14.1-35.7-1.9 28.1-3.4 25.2-13.3 35.4-10.7 11.2-6.3 12.4-37.6 14.6 29.8 2.2 27.4 5.6 36.4 13.8 10.6 10.2 10.9 18.5 14.5 72.1z"/><path fill="#FFA759" d="M543.8 427.8c3.6-52.7 5.3-63.8 14.6-72.6 6.3-5.8 9.2-11.2 36.2-13.1-29.1-2.2-26.9-4.9-36.9-14.1-9.5-8.7-12.1-7.5-13.8-35.9-1.9 28.1-3.4 25.2-13.3 35.4-10.7 10.9-6.6 12.1-37.6 14.6 29.6 2.2 27.7 5.6 36.4 13.8 10.5 9.8 10.8 18.3 14.4 71.9z"/><path fill="#FFA85A" d="M543.8 427.8c3.6-52.7 5.1-63.8 14.6-72.6 6.3-5.8 9.2-11.2 36.2-13.1-29.1-2.2-26.9-4.9-36.9-14.1-9.5-8.5-11.9-7.8-13.8-35.9-1.9 27.9-3.4 25.2-13.3 35.4-10.7 10.9-6.6 12.1-37.6 14.6 29.6 2.2 27.7 5.6 36.4 13.8 10.5 9.8 10.8 18.5 14.4 71.9z"/><path fill="#FFA85B" d="M543.8 427.8c3.6-52.7 5.1-64.1 14.6-72.6 6.3-5.8 9.5-11.2 36.4-13.1-29.1-2.2-26.9-4.9-36.9-14.1-9.5-8.5-11.9-7.8-13.8-35.9-1.9 27.9-3.4 25.2-13.3 35.4-10.7 10.9-6.6 12.1-37.6 14.3 29.6 2.2 27.7 5.6 36.4 13.6 10.3 10.3 10.6 19 14.2 72.4z"/><path fill="#FFA95C" d="M543.8 427.8c3.6-52.4 5.1-64.1 14.6-72.6 6.3-5.8 9.5-11.2 36.4-13.1-29.1-2.2-26.9-4.9-37.1-14.1-9.2-8.5-11.9-7.8-13.8-35.9-1.9 27.9-3.4 25.5-13.1 35.4-10.4 10.9-6.8 12.1-37.6 14.3 29.6 2.2 27.9 5.6 36.4 13.6 10.3 10 10.6 19 14.2 72.4z"/><path fill="#FFA95D" d="M543.8 427.8c3.6-52.4 5.1-64.1 14.6-72.8 6.3-5.8 9.5-10.9 36.4-13.1-28.9-2.2-27.2-4.9-37.1-14.1-9.2-8.5-11.9-8-13.8-35.9-1.9 27.9-3.4 25.5-13.1 35.7-10.4 10.9-6.8 12.1-37.6 14.3 29.4 2.2 27.9 5.6 36.6 13.6 10.1 9.9 10.4 19.1 14 72.3z"/><path fill="#FFAA5E" d="M543.8 427.8c3.6-52.4 5.1-64.1 14.3-72.8 6.3-5.8 9.7-10.9 36.4-12.9-28.9-2.2-27.2-4.9-37.1-13.8-9.2-8.5-11.9-8-13.6-35.9-1.9 27.9-3.4 25.5-13.1 35.7-10.4 10.9-6.8 11.9-37.6 14.3 29.4 2.2 27.9 5.6 36.6 13.6 10.5 9.4 10.5 18.6 14.1 71.8z"/><path fill="#FFAA5F" d="M543.8 427.8c3.6-52.2 5.1-64.3 14.3-72.8 6.3-5.8 9.7-10.9 36.4-12.9-28.9-2.2-27.2-4.9-37.1-13.8-9.2-8.5-11.6-8-13.6-36.2-1.9 27.7-3.4 25.7-13.1 35.7-10.4 10.7-7 11.9-37.9 14.3 29.4 2.2 27.9 5.6 36.6 13.6 10.8 9.5 10.8 18.9 14.4 72.1z"/><path fill="#FFAB60" d="M543.8 427.8c3.6-52.2 5.1-64.3 14.3-72.8 6.3-5.8 9.7-10.9 36.4-12.9-28.9-2.2-27.4-4.9-37.1-13.8-9.2-8.5-11.6-8.3-13.6-36.2-1.9 27.7-3.4 25.7-13.1 35.7-10.4 10.7-7 11.9-37.9 14.1 29.4 2.2 28.1 5.3 36.6 13.3 10.8 10 10.8 19.7 14.4 72.6z"/><path fill="#FFAB61" d="M543.8 427.8c3.6-52.2 5.1-64.3 14.3-72.8 6.3-5.8 9.9-10.9 36.6-12.9-28.9-2.2-27.4-4.9-37.1-13.8-9.2-8.5-11.6-8.3-13.6-36.2-1.9 27.7-3.4 25.7-12.9 35.7-10.4 10.7-7.3 11.9-37.9 14.1 29.1 2.2 28.1 5.3 36.6 13.3 10.4 10 10.4 19.7 14 72.6z"/><path fill="#FFAC62" d="M543.8 427.8c3.4-51.9 5.1-64.3 14.1-72.8 6.3-5.8 9.9-10.9 36.6-12.9-28.6-2.2-27.4-4.9-37.4-13.6-9.2-8.5-11.6-8.3-13.6-36.2-1.9 27.7-3.4 26-12.9 35.7-10.2 10.7-7.3 11.9-37.9 14.1 29.1 2.2 28.1 5.3 36.6 13.3 10.9 9.5 10.9 19.5 14.5 72.4z"/><path fill="#FFAC63" d="M543.8 427.8c3.4-51.9 5.1-64.5 14.1-73 6.3-5.8 10.2-10.7 36.6-12.6-28.6-2.2-27.7-4.6-37.4-13.6-9.2-8.3-11.6-8.5-13.3-36.2-1.9 27.7-3.4 26-12.9 35.9-10.2 10.7-7.3 11.9-37.9 14.1 29.1 2.2 28.1 5.3 36.6 13.3 10.6 9.2 10.8 19.4 14.2 72.1z"/><path fill="#FFAD64" d="M543.8 427.8c3.4-51.9 5.1-64.5 14.1-73 6.3-5.8 10.2-10.7 36.6-12.6-28.6-2.2-27.7-4.6-37.4-13.6-9-8.3-11.6-8.5-13.3-36.2-1.9 27.4-3.4 26-12.9 35.9-10.2 10.7-7.5 11.6-37.9 14.1 28.9 2.2 28.4 5.3 36.9 13.1 10.3 9.2 10.5 19.6 13.9 72.3z"/><path fill="#FFAD65" d="M543.8 427.8c3.4-51.7 4.9-64.5 14.1-73 6.3-5.8 10.2-10.7 36.6-12.6-28.6-2.2-27.7-4.6-37.4-13.6-9-8.3-11.4-8.5-13.3-36.4-1.9 27.4-3.4 26.2-12.9 35.9-10.2 10.4-7.5 11.6-38.1 13.8 28.9 2.2 28.4 5.3 36.9 13.1 10.5 9.7 10.7 20.1 14.1 72.8z"/><path fill="#FFAE66" d="M543.8 427.8c3.4-51.7 4.9-64.8 14.1-73 6.3-5.8 10.4-10.7 36.6-12.6-28.6-2.2-27.9-4.6-37.4-13.6-9-8.3-11.4-8.7-13.3-36.4-1.9 27.4-3.4 26.2-12.6 35.9-10.2 10.4-7.8 11.6-38.1 13.8 28.9 2.2 28.4 5.3 36.9 13.1 10.2 9.7 10.4 20.4 13.8 72.8z"/><path fill="#FFAF67" d="M543.8 427.8c3.4-51.4 4.9-64.8 13.8-73 6.1-5.8 10.4-10.7 36.9-12.6-28.4-2.2-27.9-4.6-37.4-13.3-9-8.3-11.4-8.7-13.3-36.4-1.9 27.4-3.2 26.2-12.6 35.9-10.2 10.4-7.8 11.6-38.1 13.8 28.9 2.2 28.4 5.3 36.9 13.1 10.2 9.2 10.4 20.1 13.8 72.5z"/><path fill="#FFAF68" d="M543.8 427.8c3.4-51.4 4.9-64.8 13.8-73 6.1-5.8 10.4-10.4 36.9-12.4-28.4-2.2-27.9-4.6-37.6-13.3-9-8.3-11.4-8.7-13.1-36.4-1.9 27.4-3.2 26.5-12.6 36.2-9.9 10.4-7.8 11.6-38.1 13.8 28.6 2.2 28.6 5.3 36.9 13.1 10.2 8.7 10.4 19.6 13.8 72z"/><path fill="#FFB069" d="M543.8 427.8c3.4-51.4 4.9-64.8 13.8-73.3 6.1-5.8 10.7-10.4 36.9-12.4-28.4-2.2-27.9-4.6-37.6-13.3-9-8.3-11.4-9-13.1-36.4-1.9 27.2-3.2 26.5-12.6 36.2-9.9 10.4-8 11.4-38.1 13.8 28.6 2.2 28.6 5.3 36.9 12.9 10.2 9.2 10.4 20.3 13.8 72.5z"/><path fill="#FFB06A" d="M543.8 427.8c3.4-51.2 4.9-65 13.8-73.3 6.1-5.6 10.7-10.4 36.9-12.4-28.4-2.2-28.1-4.6-37.6-13.3-9-8.3-11.2-9-13.1-36.4-1.9 27.2-3.2 26.5-12.6 36.2-9.9 10.2-8 11.4-38.1 13.6 28.6 2.2 28.6 5.1 37.1 12.9 10 9.1 10.2 20.5 13.6 72.7z"/><path fill="#FFB16B" d="M543.8 427.8c3.4-51.2 4.9-65 13.8-73.3 6.1-5.6 10.9-10.4 36.9-12.4-28.4-2.2-28.1-4.6-37.6-13.3-9-8-11.2-9-13.1-36.6-1.9 27.2-3.2 26.7-12.4 36.2-9.9 10.2-8 11.4-38.1 13.6 28.6 2.2 28.9 5.1 37.1 12.9 9.8 9.3 10 20.7 13.4 72.9z"/><path fill="#FFB16C" d="M543.8 427.8c3.4-51.2 4.9-65 13.6-73.3 6.1-5.6 10.9-10.4 36.9-12.4-28.1-2.2-28.1-4.6-37.6-13.1-8.7-8-11.2-9.2-13.1-36.6-1.9 27.2-3.2 26.7-12.4 36.2-9.9 10.2-8.2 11.4-38.3 13.6 28.4 2.2 28.9 5.1 37.1 12.9 10.2 9.1 10.4 20.8 13.8 72.7z"/><path fill="#FFB26D" d="M543.8 427.8c3.4-51 4.9-65 13.6-73.3 6.1-5.6 10.9-10.4 37.1-12.1-28.1-2.2-28.4-4.6-37.6-13.1-8.7-8-11.2-9.2-12.9-36.6-1.9 27.2-3.2 26.7-12.4 36.2-9.9 10.2-8.2 11.4-38.3 13.6 28.4 2.2 28.9 5.1 37.1 12.9 9.8 8.6 10 20.5 13.4 72.4z"/><path fill="#FFB26E" d="M543.8 427.8c3.4-51 4.9-65.3 13.6-73.3 6.1-5.6 11.2-10.2 37.1-12.1-28.1-2.2-28.4-4.6-37.6-13.1-8.7-8-11.2-9.5-12.9-36.6-1.9 26.9-3.2 26.9-12.4 36.4-9.7 10.2-8.5 11.2-38.3 13.3 28.4 2.2 28.9 5.1 37.1 12.6 9.8 9 10 20.9 13.4 72.8z"/><path fill="#FFB36F" d="M543.8 427.5c3.4-51 4.9-65.3 13.6-73.3 6.1-5.6 11.2-10.2 37.1-12.1-28.1-2.2-28.4-4.6-37.9-13.1-8.7-8-10.9-9.5-12.9-36.6-1.9 26.9-3.2 26.9-12.4 36.4-9.7 10.2-8.5 11.2-38.3 13.3 28.1 2.2 29.1 5.1 37.1 12.6 10.1 9.3 10.3 21.4 13.7 72.8z"/><path fill="#FFB370" d="M543.8 427.5c3.4-50.7 4.6-65.3 13.3-73.5 6.1-5.6 11.2-10.2 37.1-12.1-27.9-2.2-28.6-4.4-37.9-12.9-8.7-8-10.9-9.5-12.9-36.6-1.9 26.9-3.2 26.9-12.1 36.4-9.7 9.9-8.5 11.2-38.3 13.3 28.1 2.2 29.1 5.1 37.4 12.6 10 9 10 21.4 13.4 72.8z"/><path fill="#FFB471" d="M543.8 427.5c3.4-50.7 4.6-65.3 13.3-73.5 6.1-5.6 11.4-10.2 37.1-12.1-27.9-1.9-28.6-4.4-37.9-12.9-8.7-8-10.9-9.7-12.9-36.9-1.9 26.9-3.2 27.2-12.1 36.4-9.7 9.9-8.7 11.2-38.3 13.3 28.1 2.2 29.1 5.1 37.4 12.6 10 9.3 10 21.7 13.4 73.1z"/><path fill="#FFB472" d="M543.8 427.5c3.4-50.7 4.6-65.5 13.3-73.5 6.1-5.6 11.4-10.2 37.1-11.9-27.9-1.9-28.6-4.4-37.9-12.9-8.7-8-10.9-9.7-12.6-36.9-1.7 26.9-3.2 27.2-12.1 36.4-9.7 9.9-8.7 11.2-38.3 13.3 28.1 2.2 29.1 5.1 37.4 12.4 9.7 9.3 9.7 21.9 13.1 73.1z"/><path fill="#FFB573" d="M543.8 427.5c3.4-50.5 4.6-65.5 13.3-73.5 6.1-5.6 11.6-9.9 37.4-11.9-27.9-1.9-28.9-4.4-37.9-12.9-8.7-8-10.9-9.7-12.6-36.9-1.7 26.9-3.2 27.2-12.1 36.4-9.7 9.9-9 10.9-38.6 13.1 27.9 2.2 29.4 4.9 37.4 12.4 9.7 9.3 9.7 22.1 13.1 73.3z"/><path fill="#FFB574" d="M543.8 427.5c3.4-50.5 4.6-65.5 13.3-73.5 6.1-5.6 11.6-9.9 37.4-11.9-27.9-1.9-28.9-4.4-37.9-12.9-8.5-7.8-10.7-9.9-12.6-36.9-1.7 26.7-3.2 27.4-12.1 36.6-9.7 9.9-9 10.9-38.6 13.1 27.9 1.9 29.4 4.9 37.4 12.4 9.7 9.1 9.7 21.9 13.1 73.1z"/><path fill="#FFB675" d="M543.8 427.5c3.4-50.5 4.6-65.8 13.1-73.5 6.1-5.6 11.6-9.9 37.4-11.9-27.7-1.9-28.9-4.4-38.1-12.6-8.5-7.8-10.7-9.9-12.6-36.9-1.7 26.7-3.2 27.4-12.1 36.6-9.5 9.9-9 10.9-38.6 13.1 27.9 1.9 29.4 4.9 37.4 12.4 10.1 8.5 10.1 21.9 13.5 72.8z"/><path fill="#FFB676" d="M543.8 427.5c3.4-50.2 4.6-65.8 13.1-73.8 6.1-5.6 11.9-9.9 37.4-11.9-27.7-1.9-28.9-4.4-38.1-12.6-8.5-7.8-10.7-9.9-12.6-36.9-1.7 26.7-3.2 27.4-11.9 36.6-9.5 9.7-9.2 10.9-38.6 13.1 27.9 1.9 29.6 4.9 37.6 12.4 9.7 8.8 9.7 22.2 13.1 73.1z"/><path fill="#FFB777" d="M543.8 427.5c3.4-50.2 4.6-65.8 13.1-73.8 6.1-5.6 11.9-9.9 37.4-11.6-27.7-1.9-29.1-4.4-38.1-12.6-8.5-7.8-10.7-10.2-12.4-37.1-1.7 26.7-3.2 27.7-11.9 36.6-9.5 9.7-9.2 10.9-38.6 13.1 27.7 1.9 29.6 4.9 37.6 12.1 9.5 9 9.5 22.4 12.9 73.3z"/><path fill="#FFB878" d="M543.8 427.5c3.4-50 4.6-65.8 13.1-73.8 6.1-5.6 11.9-9.7 37.4-11.6-27.7-1.9-29.1-4.4-38.1-12.6-8.5-7.8-10.7-10.2-12.4-37.1-1.7 26.7-3.2 27.7-11.9 36.6-9.5 9.7-9.2 10.7-38.6 12.9 27.7 1.9 29.6 4.9 37.6 12.1 9.5 9 9.5 22.8 12.9 73.5z"/><path fill="#FFB879" d="M543.8 427.5c3.4-50 4.6-66 13.1-73.8 6.1-5.6 12.1-9.7 37.6-11.6-27.7-1.9-29.1-4.4-38.1-12.6-8.5-7.8-10.7-10.2-12.4-37.1-1.7 26.5-3.2 27.7-11.9 36.6-9.5 9.7-9.5 10.7-38.6 12.9 27.7 1.9 29.6 4.9 37.6 12.1 9.3 9 9.3 22.8 12.7 73.5z"/><path fill="#FFB97A" d="M543.8 427.5c3.4-50 4.4-66 12.9-73.8 6.1-5.6 12.1-9.7 37.6-11.6-27.4-1.9-29.4-4.4-38.1-12.4-8.5-7.8-10.4-10.4-12.4-37.1-1.7 26.5-3.2 27.9-11.9 36.9-9.5 9.7-9.5 10.7-38.8 12.9 27.4 1.9 29.8 4.9 37.6 12.1 9.7 8.5 9.7 22.3 13.1 73z"/><path fill="#FFB97B" d="M543.8 427.5c3.4-49.7 4.4-66 12.9-73.8 5.8-5.6 12.4-9.7 37.6-11.6-27.4-1.9-29.4-4.4-38.3-12.4-8.5-7.8-10.4-10.4-12.4-37.1-1.7 26.5-3.2 27.9-11.6 36.9-9.2 9.7-9.7 10.7-38.8 12.9 27.4 1.9 29.8 4.9 37.6 12.1 9.6 8.3 9.6 22.6 13 73z"/><path fill="#FFBA7C" d="M543.8 427.5c3.4-49.7 4.4-66 12.9-74 5.8-5.6 12.4-9.7 37.6-11.4-27.4-1.9-29.4-4.4-38.3-12.4-8.2-7.5-10.4-10.4-12.1-37.4-1.7 26.5-3.2 27.9-11.6 36.9-9.2 9.5-9.7 10.7-38.8 12.6 27.4 1.9 29.8 4.6 37.6 11.9 9.3 9.1 9.3 23.4 12.7 73.8z"/><path fill="#FFBA7D" d="M543.8 427.5c3.4-49.7 4.4-66.2 12.9-74 5.8-5.6 12.4-9.7 37.6-11.4-27.4-1.9-29.6-4.1-38.3-12.4-8.2-7.5-10.4-10.7-12.1-37.4-1.7 26.5-2.9 28.1-11.6 36.9-9.2 9.5-9.7 10.4-38.8 12.6 27.4 1.9 29.8 4.6 37.9 11.9 9 9.1 9 23.4 12.4 73.8z"/><path fill="#FFBB7E" d="M543.8 427.5c3.4-49.5 4.4-66.2 12.9-74 5.8-5.6 12.6-9.5 37.6-11.4-27.4-1.9-29.6-4.1-38.3-12.1-8.2-7.5-10.4-10.7-12.1-37.4-1.7 26.2-2.9 28.1-11.6 36.9-9.2 9.5-9.9 10.4-38.8 12.6 27.2 1.9 30.1 4.6 37.9 11.9 9 8.5 9 23.3 12.4 73.5z"/><path fill="#FFBB7F" d="M543.8 427.5c3.4-49.5 4.4-66.2 12.6-74 5.8-5.3 12.6-9.5 37.9-11.4-27.2-1.9-29.6-4.1-38.3-12.1-8.2-7.5-10.2-10.7-12.1-37.4-1.7 26.2-2.9 28.1-11.6 36.9-9.2 9.5-9.9 10.4-38.8 12.6 27.2 1.9 30.1 4.6 37.9 11.9 9 8.5 9 23.3 12.4 73.5z"/><path fill="#FFBC80" d="M543.8 427.5c3.4-49.5 4.4-66.5 12.6-74 5.8-5.3 12.6-9.5 37.9-11.4-27.2-1.9-29.6-4.1-38.3-12.1-8.2-7.5-10.2-10.9-12.1-37.4-1.7 26.2-2.9 28.1-11.4 37.1-9.2 9.5-10.2 10.4-39.1 12.6 27.2 1.9 30.1 4.6 37.9 11.6 9.1 8.6 9.1 23.4 12.5 73.6z"/><path fill="#FFBC81" d="M543.8 427.5c3.4-49.3 4.4-66.5 12.6-74 5.8-5.3 12.9-9.5 37.9-11.2-27.2-1.9-29.8-4.1-38.3-12.1-8.2-7.5-10.2-10.9-11.9-37.4-1.7 26.2-2.9 28.4-11.4 37.1-9 9.5-10.2 10.4-39.1 12.4 27.2 1.9 30.3 4.6 37.9 11.6 8.9 8.4 8.9 23.7 12.3 73.6z"/><path fill="#FFBD82" d="M543.8 427.5c3.4-49.3 4.4-66.5 12.6-74.3 5.8-5.3 12.9-9.5 37.9-11.2-27.2-1.9-29.8-4.1-38.6-12.1-8.3-7.5-10.2-11.2-11.9-37.6-1.7 26.2-2.9 28.4-11.4 37.1-9 9.2-10.2 10.2-39.1 12.4 26.9 1.9 30.3 4.6 37.9 11.6 9.5 8.9 9.2 24.2 12.6 74.1z"/><path fill="#FFBD83" d="M543.8 427.5c3.4-49.3 4.4-66.5 12.4-74.3 5.8-5.3 13.1-9.2 37.9-11.2-27.2-1.9-29.8-4.1-38.6-11.9-8.2-7.5-10.2-11.2-11.9-37.6-1.7 26-2.9 28.4-11.4 37.1-9 9.2-10.4 10.2-39.1 12.4 26.9 1.9 30.3 4.6 38.1 11.6 9.5 8.7 9.2 24 12.6 73.9z"/><path fill="#FFBE84" d="M543.8 427.5c3.4-49 4.4-66.7 12.4-74.3 5.8-5.3 13.1-9.2 37.9-11.2-26.9-1.9-30.1-4.1-38.6-11.9-8-7.5-9.9-11.2-11.9-37.6-1.7 26-2.9 28.6-11.4 37.1-9 9.2-10.4 10.2-39.1 12.4 27.2 1.9 30.8 4.4 38.3 11.6 9.3 8.4 9 24.2 12.4 73.9z"/><path fill="#FFBE85" d="M543.8 427.5c3.4-49 4.1-66.7 12.4-74.3 5.8-5.3 13.1-9.2 38.1-11.2-26.9-1.9-30.1-4.1-38.6-11.9-8-7.3-9.9-11.4-11.9-37.6-1.7 26-2.9 28.6-11.2 37.1-9 9.2-10.7 10.2-39.1 12.4 26.7 1.9 30.6 4.4 38.1 11.4 9.1 8.6 8.8 24.4 12.2 74.1z"/><path fill="#FFBF86" d="M543.8 427.5c3.4-49 4.1-66.7 12.4-74.3 5.8-5.3 13.3-9.2 38.1-10.9-26.9-1.9-30.1-4.1-38.6-11.9-8-7.3-9.9-11.4-11.6-37.6-1.7 26-2.9 28.6-11.2 37.4-9 9.2-10.7 10.2-39.1 12.1 26.7 1.9 30.6 4.4 38.1 11.4 8.8 8.3 8.5 24.1 11.9 73.8z"/><path fill="#FFBF87" d="M543.8 427.3c3.4-48.8 4.1-66.7 12.4-74.3 5.8-5.3 13.3-9.2 38.1-10.9-26.9-1.9-30.3-4.1-38.6-11.9-8-7.3-9.9-11.4-11.6-37.6-1.7 26-2.9 28.9-11.2 37.4-8.7 9.2-10.7 9.9-39.3 12.1 26.7 1.9 30.6 4.4 38.1 11.4 9 8.3 8.7 24.5 12.1 73.8z"/><path fill="#FFC088" d="M543.8 427.3c3.4-48.8 4.1-67 12.1-74.3 5.8-5.3 13.3-9.2 38.1-10.9-26.9-1.9-30.3-4.1-38.8-11.6-8-7.3-9.9-11.6-11.6-37.9-1.7 26-2.9 28.9-11.2 37.4-8.7 9-10.9 9.9-39.3 12.1 26.7 1.9 30.6 4.4 38.1 11.4 9.5 8.3 9.2 24.5 12.6 73.8z"/><path fill="#FFC189" d="M543.8 427.3c3.4-48.5 4.1-67 12.1-74.5 5.8-5.3 13.6-9 38.1-10.9-26.7-1.9-30.3-3.9-38.8-11.6-8-7.3-9.7-11.6-11.6-37.9-1.7 25.7-2.9 28.9-11.2 37.4-8.7 9-10.9 9.9-39.3 12.1 26.5 1.9 30.8 4.4 38.3 11.4 9.3 8.2 9 24.7 12.4 74z"/><path fill="#FFC18A" d="M543.8 427.3c3.4-48.5 4.1-67 12.1-74.5 5.8-5.3 13.6-9 38.1-10.9-26.7-1.9-30.6-3.9-38.8-11.6-8-7.3-9.7-11.6-11.6-37.9-1.7 25.7-2.9 29.1-10.9 37.4-8.7 9-10.9 9.9-39.3 11.9 26.5 1.9 30.8 4.4 38.3 11.2 9 8.6 9 25.4 12.1 74.4z"/><path fill="#FFC28B" d="M543.8 427.3c3.4-48.5 4.1-67 12.1-74.5 5.8-5.3 13.8-9 38.3-10.7-26.7-1.9-30.6-3.9-38.8-11.6-7.8-7.3-9.7-11.9-11.4-37.9-1.7 25.7-2.9 29.1-10.9 37.4-8.7 9-11.2 9.9-39.3 11.9 26.5 1.9 30.8 4.4 38.3 11.2 8.6 8.4 8.6 25.2 11.7 74.2z"/><path fill="#FFC28C" d="M543.8 427.3c3.2-48.3 4.1-67.2 12.1-74.5 5.8-5.3 13.8-9 38.3-10.7-26.7-1.9-30.6-3.9-38.8-11.4-7.8-7.3-9.7-11.9-11.4-37.9-1.7 25.7-2.9 29.1-10.9 37.6-8.7 9-11.2 9.7-39.3 11.9 26.5 1.9 31.1 4.4 38.3 11.2 8.6 7.8 8.6 24.8 11.7 73.8z"/><path fill="#FFC38D" d="M543.8 427.3c3.2-48.3 4.1-67.2 11.9-74.5 5.8-5.3 13.8-9 38.3-10.7-26.7-1.9-30.6-3.9-38.8-11.4-7.8-7.3-9.7-11.9-11.4-37.9-1.7 25.7-2.9 29.4-10.9 37.6-8.5 9-11.4 9.7-39.3 11.9 26.2 1.9 31.1 4.4 38.3 11.2 8.8 7.8 8.8 25 11.9 73.8z"/><path fill="#FFC38E" d="M543.8 427.3c3.2-48.3 4.1-67.2 11.9-74.5 5.6-5.3 14.1-8.7 38.3-10.7-26.5-1.9-30.8-3.9-39.1-11.4-7.8-7-9.7-12.1-11.4-38.1-1.7 25.5-2.9 29.4-10.9 37.6-8.5 8.7-11.4 9.7-39.6 11.9 26.2 1.9 31.1 4.1 38.3 10.9 9.4 8.3 9.4 25.5 12.5 74.3z"/><path fill="#FFC48F" d="M543.8 427.3c3.2-48 4.1-67.5 11.9-74.7 5.6-5.3 14.1-8.7 38.3-10.7-26.5-1.9-30.8-3.9-39.1-11.4-7.8-7-9.5-12.1-11.4-38.1-1.7 25.5-2.9 29.4-10.7 37.6-8.5 8.7-11.4 9.7-39.6 11.6 26.2 1.9 31.1 4.1 38.3 10.9 9.2 8.6 9.2 26 12.3 74.8z"/><path fill="#FFC490" d="M543.8 427.3c3.2-48 3.9-67.5 11.9-74.7 5.6-5.3 14.1-8.7 38.3-10.4-26.5-1.9-30.8-3.9-39.1-11.4-7.8-7-9.5-12.1-11.2-38.1-1.7 25.5-2.9 29.6-10.7 37.6-8.5 8.7-11.6 9.7-39.6 11.6 26 1.9 31.3 4.1 38.6 10.9 8.7 8.3 8.7 26 11.8 74.5z"/><path fill="#FFC591" d="M543.8 427.3c3.2-48 3.9-67.5 11.9-74.7 5.6-5.3 14.3-8.7 38.6-10.4-26.5-1.9-31.1-3.9-39.1-11.2-7.8-7-9.5-12.4-11.2-38.1-1.7 25.5-2.9 29.6-10.7 37.9-8.5 8.7-11.6 9.7-39.6 11.6 26 1.9 31.3 4.1 38.6 10.9 8.4 7.8 8.4 25.5 11.5 74z"/><path fill="#FFC592" d="M543.8 427.3c3.2-47.8 3.9-67.5 11.6-74.7 5.6-5.3 14.3-8.7 38.6-10.4-26.2-1.9-31.1-3.9-39.1-11.2-7.8-7-9.5-12.4-11.2-38.1-1.7 25.5-2.9 29.6-10.7 37.9-8.5 8.7-11.9 9.5-39.6 11.6 26 1.9 31.3 4.1 38.6 10.9 8.7 7.5 8.7 25.5 11.8 74z"/><path fill="#FFC693" d="M543.8 427.3c3.2-47.8 3.9-67.7 11.6-74.7 5.6-5.3 14.6-8.5 38.6-10.4-26.2-1.9-31.1-3.9-39.1-11.2-7.5-7-9.5-12.4-11.2-38.1-1.7 25.2-2.7 29.8-10.7 37.9-8.2 8.7-11.9 9.5-39.6 11.6 26 1.9 31.3 4.1 38.6 10.7 8.7 7.7 8.7 25.9 11.8 74.2z"/><path fill="#FFC694" d="M543.8 427.3c3.2-47.8 3.9-67.7 11.6-74.7 5.6-5.1 14.6-8.5 38.6-10.4-26.2-1.9-31.3-3.9-39.1-11.2-7.5-7-9.2-12.6-11.2-38.3-1.7 25.2-2.7 29.8-10.4 37.9-8.3 8.5-11.9 9.5-39.8 11.4 25.7 1.9 31.5 4.1 38.6 10.7 8.8 8.1 8.6 26.3 11.7 74.6z"/><path fill="#FFC795" d="M543.8 427.3c3.2-47.6 3.9-67.7 11.6-75 5.6-5.1 14.6-8.5 38.6-10.2-26.2-1.9-31.3-3.9-39.3-11.2-7.5-7-9.2-12.6-10.9-38.3-1.7 25.2-2.7 29.8-10.4 37.9-8.3 8.5-12.1 9.5-39.8 11.4 25.7 1.9 31.5 4.1 38.6 10.7 8.7 8 8.5 26.4 11.6 74.7z"/><path fill="#FFC796" d="M543.8 427.3c3.2-47.6 3.9-67.7 11.6-75 5.6-5.1 14.8-8.5 38.6-10.2-26.2-1.9-31.3-3.6-39.3-10.9-7.5-6.8-9.2-12.9-10.9-38.3-1.7 25.2-2.7 30.1-10.4 37.9-8.3 8.5-12.1 9.5-39.8 11.4 25.7 1.9 31.5 3.9 38.8 10.7 8.5 7.7 8.3 26.4 11.4 74.4z"/><path fill="#FFC897" d="M543.8 427.3c3.2-47.3 3.9-67.9 11.4-75 5.6-5.1 14.8-8.5 38.8-10.2-26-1.9-31.5-3.6-39.3-10.9-7.5-6.8-9.2-12.9-10.9-38.3-1.7 25.2-2.7 30.1-10.4 38.1-8.3 8.5-12.1 9.2-39.8 11.4 25.7 1.9 31.5 3.9 38.8 10.7 8.5 7.2 8.3 26.2 11.4 74.2z"/><path fill="#FFC898" d="M543.8 427.3c3.2-47.3 3.9-67.9 11.4-75 5.6-5.1 14.8-8.5 38.8-10.2-26-1.9-31.5-3.6-39.3-10.9-7.5-6.8-9.2-12.9-10.9-38.3-1.7 25-2.7 30.1-10.4 38.1-8.3 8.5-12.4 9.2-39.8 11.2 25.5 1.9 31.8 3.9 38.8 10.4 8.5 7.7 8.3 26.7 11.4 74.7z"/><path fill="#FFC999" d="M543.8 427.3c3.2-47.3 3.9-67.9 11.4-75 5.6-5.1 15-8.3 38.8-10.2-26-1.9-31.5-3.6-39.3-10.9-7.5-6.8-9-13.1-10.9-38.6-1.7 25-2.7 30.3-10.4 38.1-8 8.3-12.4 9.2-39.8 11.2 25.5 1.9 31.8 3.9 38.8 10.4 8.5 8 8.3 27.2 11.4 75z"/><path fill="#FFCA9A" d="M543.8 427.3c3.2-47.1 3.9-68.2 11.4-75 5.6-5.1 15-8.3 38.8-9.9-26-1.9-31.5-3.6-39.3-10.7-7.5-6.8-9-13.1-10.7-38.6-1.7 25-2.7 30.3-10.2 38.1-8 8.3-12.6 9.2-39.8 11.2 25.5 1.9 31.8 3.9 38.8 10.4 8.1 7.3 7.9 26.7 11 74.5z"/><path fill="#FFCA9B" d="M543.8 427.3c3.2-47.1 3.6-68.2 11.2-75.2 5.6-5.1 15-8.3 38.8-9.9-26-1.9-31.8-3.6-39.6-10.7-7.3-6.8-9-13.1-10.7-38.6-1.7 25-2.7 30.3-10.2 38.1-8 8.3-12.6 9.2-40 11.2 25.2 1.9 32 3.9 38.8 10.4 8.8 7.5 8.6 26.9 11.7 74.7z"/><path fill="#FFCB9C" d="M543.8 427.3c3.2-47.1 3.6-68.2 11.2-75.2 5.6-5.1 15.3-8.3 38.8-9.9-25.7-1.9-31.8-3.6-39.6-10.7-7.3-6.8-9-13.3-10.7-38.6-1.7 25-2.7 30.6-10.2 38.1-8 8.3-12.6 9-40 11.2 25.2 1.9 32 3.9 39.1 10.2 8.5 7.7 8.3 27.3 11.4 74.9z"/><path fill="#FFCB9D" d="M543.8 427.3c3.2-46.8 3.6-68.2 11.2-75.2 5.6-5.1 15.3-8.3 39.1-9.9-25.7-1.9-31.8-3.6-39.6-10.7-7.3-6.8-9-13.3-10.7-38.6-1.7 25-2.7 30.6-10.2 38.3-8 8.3-12.9 9-40 10.9 25.2 1.9 32 3.9 39.1 10.2 8.2 7.5 8 27.4 11.1 75z"/><path fill="#FFCC9E" d="M543.8 427.3c3.2-46.8 3.6-68.4 11.2-75.2 5.6-5.1 15.5-8 39.1-9.9-25.7-1.9-32-3.6-39.6-10.7-7.3-6.8-8.7-13.3-10.7-38.6-1.7 24.8-2.7 30.6-10.2 38.3-8 8.3-12.9 9-40 10.9 25.2 1.9 32 3.9 39.1 10.2 8.2 7.5 8 27.4 11.1 75z"/><path fill="#FFCC9F" d="M543.8 427.3c3.2-46.8 3.6-68.4 11.2-75.2 5.6-5.1 15.5-8 39.1-9.7-25.7-1.9-32-3.6-39.6-10.4-7.3-6.6-8.7-13.6-10.4-38.8-1.7 24.8-2.7 30.6-9.9 38.3-7.8 8-13.1 9-40 10.9 25 1.9 32.3 3.6 39.1 10.2 7.6 7.2 7.4 27.4 10.5 74.7z"/><path fill="#FFCDA0" d="M543.8 427.1c3.2-46.6 3.6-68.4 10.9-75.2 5.6-5.1 15.5-8 39.1-9.7-25.7-1.9-32-3.6-39.6-10.4-7.3-6.6-8.7-13.6-10.4-38.8-1.7 24.8-2.7 30.8-9.9 38.3-7.8 8-13.1 9-40 10.9 25 1.9 32.3 3.6 39.1 10.2 7.9 7.2 7.7 27.6 10.8 74.7z"/><path fill="#FFCDA1" d="M543.8 427.1c3.2-46.6 3.6-68.4 10.9-75.2 5.6-5.1 15.8-8 39.1-9.7-25.5-1.9-32.3-3.6-39.6-10.4-7.3-6.6-8.7-13.6-10.4-38.8-1.7 24.8-2.7 30.8-9.9 38.3-7.8 8-13.1 8.7-40 10.9 25 1.9 32.3 3.6 39.1 9.9 7.9 7.5 7.7 27.9 10.8 75z"/><path fill="#FFCEA2" d="M543.8 427.1c3.2-46.6 3.6-68.7 10.9-75.5 5.3-5.1 15.8-8 39.1-9.7-25.5-1.9-32.3-3.6-39.8-10.4-7.3-6.6-8.7-13.8-10.4-38.8-1.7 24.8-2.7 30.8-9.9 38.3-7.8 8-13.3 8.7-40.3 10.7 24.8 1.9 32.3 3.6 39.3 9.9 8.2 8 8 28.6 11.1 75.5z"/><path fill="#FFCEA3" d="M543.8 427.1c3.2-46.3 3.6-68.7 10.9-75.5 5.3-5.1 16-8 39.3-9.7-25.5-1.9-32.3-3.4-39.8-10.4-7-6.6-8.7-13.8-10.4-38.8-1.7 24.5-2.7 31.1-9.9 38.6-7.8 8-13.3 8.7-40.3 10.7 24.8 1.9 32.5 3.6 39.3 9.9 8 7.5 7.8 28.3 10.9 75.2z"/><path fill="#FFCFA4" d="M543.8 427.1c3.2-46.3 3.6-68.7 10.9-75.5 5.3-5.1 16-7.8 39.3-9.5-25.5-1.9-32.3-3.4-39.8-10.2-7-6.6-8.5-13.8-10.2-38.8-1.7 24.5-2.7 31.1-9.7 38.6-7.8 8-13.3 8.7-40.3 10.7 24.8 1.9 32.5 3.6 39.3 9.9 7.6 7.1 7.4 27.9 10.5 74.8z"/><path fill="#FFCFA5" d="M543.8 427.1c3.2-46.3 3.6-68.7 10.7-75.5 5.3-5.1 16-7.8 39.3-9.5-25.5-1.9-32.5-3.4-39.8-10.2-7-6.6-8.5-14.1-10.2-39.1-1.7 24.5-2.7 31.1-9.7 38.6-7.5 7.8-13.6 8.7-40.3 10.7 24.8 1.7 32.5 3.6 39.3 9.9 7.8 7.4 7.6 28.5 10.7 75.1z"/><path fill="#FFD0A6" d="M543.8 427.1c3.2-46.1 3.4-68.9 10.7-75.5 5.3-5.1 16.3-7.8 39.3-9.5-25.2-1.9-32.5-3.4-39.8-10.2-7-6.6-8.5-14.1-10.2-39.1-1.7 24.5-2.7 31.3-9.7 38.6-7.5 7.8-13.6 8.5-40.3 10.4 24.5 1.7 32.8 3.6 39.3 9.7 7.8 7.6 7.6 29 10.7 75.6z"/><path fill="#FFD0A7" d="M543.8 427.1c3.2-46.1 3.4-68.9 10.7-75.5 5.3-5.1 16.3-7.8 39.3-9.5-25.2-1.9-32.5-3.4-39.8-10.2-7-6.3-8.5-14.1-10.2-39.1-1.7 24.5-2.7 31.3-9.7 38.6-7.5 7.8-13.8 8.5-40.3 10.4 24.5 1.7 32.8 3.6 39.3 9.7 8 7.6 7.6 29 10.7 75.6z"/><path fill="#FFD1A8" d="M543.8 427.1c3.2-46.1 3.4-68.9 10.7-75.7 5.3-5.1 16.3-7.8 39.3-9.5-25.2-1.9-32.8-3.4-40-9.9-7-6.3-8.5-14.3-10.2-39.1-1.7 24.3-2.7 31.3-9.7 38.6-7.5 7.8-13.8 8.5-40.5 10.4 24.5 1.7 32.8 3.4 39.3 9.7 8.4 7.5 8 29.1 11.1 75.5z"/><path fill="#FFD1A9" d="M543.8 427.1c3.2-45.9 3.4-69.2 10.4-75.7 5.3-4.9 16.5-7.5 39.6-9.2-25.2-1.9-32.8-3.4-40-9.9-7-6.3-8.3-14.3-9.9-39.1-1.7 24.3-2.4 31.5-9.5 38.8-7.5 7.8-13.8 8.5-40.5 10.4 24.5 1.7 32.8 3.4 39.6 9.7 7.6 6.8 7.2 28.6 10.3 75z"/><path fill="#FFD2AA" d="M543.8 427.1c3.2-45.9 3.4-69.2 10.4-75.7 5.3-4.9 16.5-7.5 39.6-9.2-25-1.9-32.8-3.4-40-9.9-7-6.3-8.3-14.3-9.9-39.1-1.7 24.3-2.4 31.5-9.5 38.8-7.5 7.8-14.1 8.5-40.5 10.4 24.3 1.7 33 3.4 39.6 9.5 7.6 7 7.2 28.8 10.3 75.2z"/><path fill="#FFD3AB" d="M543.8 427.1c3.2-45.6 3.4-69.2 10.4-75.7 5.3-4.9 16.5-7.5 39.6-9.2-25-1.9-33-3.4-40-9.9-6.8-6.3-8.3-14.6-9.9-39.3-1.7 24.3-2.4 31.5-9.5 38.8-7.3 7.5-14.1 8.3-40.5 10.2 24.3 1.7 33 3.4 39.6 9.5 7.6 7.1 7.2 29.5 10.3 75.6z"/><path fill="#FFD3AC" d="M543.8 427.1c3.2-45.6 3.4-69.2 10.4-75.7 5.3-4.9 16.7-7.5 39.6-9.2-25-1.9-33-3.4-40-9.9-6.8-6.3-8.3-14.6-9.9-39.3-1.7 24.3-2.4 31.8-9.5 38.8-7.3 7.5-14.3 8.3-40.5 10.2 24.3 1.7 33 3.4 39.6 9.5 7.6 7.1 7.2 29.5 10.3 75.6z"/><path fill="#FFD4AD" d="M543.8 427.1c3.2-45.6 3.4-69.4 10.4-75.7 5.3-4.9 16.7-7.5 39.6-9.2-25-1.9-33-3.4-40-9.7-6.8-6.3-8.3-14.8-9.7-39.3-1.7 24-2.4 31.8-9.5 38.8-7.3 7.5-14.3 8.3-40.5 10.2 24 1.7 33 3.4 39.6 9.5 7.4 6.9 7 29.3 10.1 75.4z"/><path fill="#FFD4AE" d="M543.8 427.1c3.2-45.4 3.4-69.4 10.2-76 5.3-4.9 17-7.3 39.6-9-25-1.9-33.2-3.4-40.3-9.7-6.8-6.3-8-14.8-9.7-39.3-1.7 24-2.4 31.8-9.2 38.8-7.3 7.5-14.3 8.3-40.5 10.2 24 1.7 33.2 3.4 39.6 9.5 7.6 6.8 7.2 29.6 10.3 75.5z"/><path fill="#FFD5AF" d="M543.8 427.1c3.2-45.4 3.4-69.4 10.2-76 5.3-4.9 17-7.3 39.8-9-24.8-1.9-33.2-3.4-40.3-9.7-6.8-6.3-8-14.8-9.7-39.3-1.7 24-2.4 32-9.2 39.1-7.3 7.5-14.6 8.3-40.8 10.2 24 1.7 33.2 3.4 39.8 9.2 7.5 6.8 7.1 29.6 10.2 75.5z"/><path fill="#FFD5B0" d="M543.8 427.1c3.2-45.4 3.4-69.4 10.2-76 5.3-4.9 17-7.3 39.8-9-24.8-1.9-33.2-3.2-40.3-9.7-6.8-6.1-8-15-9.7-39.3-1.7 24-2.4 32-9.2 39.1-7.3 7.5-14.6 8-40.8 9.9 24 1.7 33.2 3.4 39.8 9.2 7.5 7.1 7.1 29.9 10.2 75.8z"/><path fill="#FFD6B1" d="M543.8 427.1c3.2-45.1 3.2-69.6 10.2-76 5.3-4.9 17.2-7.3 39.8-9-24.8-1.9-33.2-3.2-40.3-9.7-6.8-6.1-8-15-9.7-39.6-1.7 24-2.4 32-9.2 39.1-7 7.3-14.6 8-40.8 9.9 23.8 1.7 33.5 3.2 39.8 9.2 7.5 7.1 7.1 30.4 10.2 76.1z"/><path fill="#FFD6B2" d="M543.8 427.1c3.2-45.1 3.2-69.6 10.2-76 5.3-4.9 17.2-7.3 39.8-9-24.8-1.9-33.5-3.2-40.3-9.5-6.8-6.1-8-15-9.5-39.6-1.7 23.8-2.4 32.3-9.2 39.1-7 7.3-14.8 8-40.8 9.9 23.8 1.7 33.5 3.2 39.8 9.2 7.3 6.9 7.1 30.2 10 75.9z"/><path fill="#FFD7B3" d="M543.8 427.1c3.2-45.1 3.2-69.6 9.9-76 5.3-4.9 17.2-7.3 39.8-8.7-24.8-1.7-33.5-3.2-40.3-9.5-6.6-6.1-7.8-15.3-9.5-39.6-1.7 23.8-2.4 32.3-9 39.1-7 7.3-14.8 8-40.8 9.9 23.8 1.7 33.5 3.2 39.8 9.2 7.4 6.6 7.2 29.9 10.1 75.6z"/><path fill="#FFD7B4" d="M543.8 427.1c3.2-44.9 3.2-69.9 9.9-76 5.3-4.9 17.5-7 39.8-8.7-24.5-1.7-33.5-3.2-40.5-9.5-6.6-6.1-7.8-15.3-9.5-39.6-1.7 23.8-2.4 32.3-9 39.1-7 7.3-15 8-40.8 9.9 23.8 1.7 33.5 3.2 39.8 9 7.6 6.6 7.4 30.4 10.3 75.8z"/><path fill="#FFD8B5" d="M543.8 427.1c2.9-44.9 3.2-69.9 9.9-76.2 5.1-4.9 17.5-7 40-8.7-24.5-1.7-33.7-3.2-40.5-9.5-6.6-6.1-7.8-15.3-9.5-39.6-1.7 23.8-2.4 32.5-9 39.3-7 7.3-15 7.8-40.8 9.7 23.5 1.7 33.7 3.2 40 9 7.2 6.8 7 30.6 9.9 76z"/><path fill="#FFD8B6" d="M543.8 427.1c2.9-44.9 3.2-69.9 9.9-76.2 5.1-4.9 17.7-7 40-8.7-24.5-1.7-33.7-3.2-40.5-9.2-6.6-6.1-7.8-15.5-9.5-39.6-1.7 23.8-2.4 32.5-9 39.3-7 7.3-15 7.8-41 9.7 23.5 1.7 33.7 3.2 40 9 7.4 6.5 7.2 30.3 10.1 75.7z"/><path fill="#FFD9B7" d="M543.8 427.1c2.9-44.7 3.2-69.9 9.9-76.2 5.1-4.9 17.7-7 40-8.7-24.5-1.7-33.7-3.2-40.5-9.2-6.6-6.1-7.8-15.5-9.2-39.8-1.7 23.8-2.4 32.5-9 39.3-6.8 7-15.3 7.8-41 9.7 23.5 1.7 33.7 3.2 40 9 7.1 6.5 6.9 30.7 9.8 75.9z"/><path fill="#FFD9B8" d="M543.8 426.8c2.9-44.7 3.2-70.1 9.7-76.2 5.1-4.9 17.7-7 40-8.5-24.5-1.7-34-3.2-40.5-9.2s-7.8-15.5-9.2-39.8c-1.7 23.5-2.4 32.8-8.7 39.3-6.8 7-15.3 7.8-41 9.7 23.3 1.7 33.7 3.2 40 8.7 7 6.9 6.8 31.1 9.7 76z"/><path fill="#FFDAB9" d="M543.8 426.8c2.9-44.4 3.2-70.1 9.7-76.2 5.1-4.9 18-6.8 40-8.5-24.3-1.7-34-3.2-40.5-9.2-6.6-5.8-7.5-15.8-9.2-39.8-1.7 23.5-2.4 32.8-8.7 39.3-6.8 7-15.5 7.8-41 9.5 23.3 1.7 34 3.2 40 8.7 7.3 7.1 6.8 31.3 9.7 76.2z"/><path fill="#FFDABA" d="M543.8 426.8c2.9-44.4 3.2-70.1 9.7-76.2 5.1-4.9 18-6.8 40-8.5-24.3-1.7-34-3.2-40.5-9.2-6.6-5.8-7.5-15.8-9.2-39.8-1.7 23.5-2.4 32.8-8.7 39.6-6.8 7-15.5 7.5-41 9.5 23.3 1.7 34 3.2 40 8.7 7.3 6.5 6.8 31.3 9.7 75.9z"/><path fill="#FFDBBB" d="M543.8 426.8c2.9-44.4 3.2-70.1 9.7-76.4 5.1-4.9 18-6.8 40.3-8.5-24.3-1.7-34.2-3.2-40.8-9-6.3-5.8-7.5-15.8-9.2-39.8-1.7 23.5-2.4 33-8.7 39.6-6.8 7-15.5 7.5-41 9.5 23.3 1.7 34 2.9 40 8.7 7.3 6.5 6.8 31.3 9.7 75.9z"/><path fill="#FFDCBC" d="M543.8 426.8c2.9-44.2 2.9-70.4 9.5-76.4 5.1-4.9 18.2-6.8 40.3-8.5-24.3-1.7-34.2-2.9-40.8-9-6.3-5.8-7.5-16-9-40-1.7 23.5-2.4 33-8.7 39.6-6.8 7-15.8 7.5-41.3 9.5 23.1 1.7 34.2 2.9 40.3 8.7 7.3 6.5 6.8 31.5 9.7 76.1z"/><path fill="#FFDCBD" d="M543.8 426.8c2.9-44.2 2.9-70.4 9.5-76.4 5.1-4.9 18.2-6.8 40.3-8.3-24.3-1.7-34.2-2.9-40.8-9-6.3-5.8-7.5-16-9-40-1.7 23.3-2.4 33-8.7 39.6-6.6 6.8-15.8 7.5-41.3 9.5 23.1 1.7 34.2 2.9 40.3 8.5 7.3 6.5 6.8 31.7 9.7 76.1z"/><path fill="#FFDDBE" d="M543.8 426.8c2.9-44.2 2.9-70.4 9.5-76.4 5.1-4.6 18.4-6.8 40.3-8.3-24-1.7-34.2-2.9-40.8-9-6.3-5.8-7.3-16.3-9-40-1.7 23.3-2.4 33.2-8.5 39.6-6.6 6.8-15.8 7.5-41.3 9.2 23.1 1.7 34.2 2.9 40.3 8.5 7.1 6.8 6.6 32 9.5 76.4z"/><path fill="#FFDDBF" d="M543.8 426.8c2.9-43.9 2.9-70.6 9.5-76.4 5.1-4.6 18.4-6.6 40.3-8.3-24-1.7-34.5-2.9-40.8-9-6.3-5.8-7.3-16.3-9-40-1.5 23.3-2.2 33.2-8.5 39.6-6.6 6.8-16 7.3-41.3 9.2 23.1 1.7 34.2 2.9 40.3 8.5 7.1 6.5 6.6 32 9.5 76.4z"/><path fill="#FFDEC0" d="M543.8 426.8c2.9-43.9 2.9-70.6 9.5-76.4 5.1-4.6 18.4-6.6 40.3-8.3-24-1.7-34.5-2.9-40.8-8.7-6.3-5.8-7.3-16.3-9-40-1.5 23.3-2.2 33.2-8.5 39.8-6.6 6.8-16 7.3-41.3 9.2 22.8 1.7 34.5 2.9 40.3 8.5 7.1 6 6.6 31.8 9.5 75.9z"/><path fill="#FFDEC1" d="M543.8 426.8c2.9-43.9 2.9-70.6 9.2-76.7 5.1-4.6 18.7-6.6 40.5-8.3-24-1.7-34.5-2.9-41-8.7-6.3-5.6-7.3-16.5-8.7-40-1.5 23.3-2.2 33.5-8.5 39.8-6.6 6.8-16.3 7.3-41.3 9.2 22.8 1.7 34.5 2.9 40.3 8.5 7.1 6.3 6.6 32.1 9.5 76.2z"/><path fill="#FFDFC2" d="M543.8 426.8c2.9-43.7 2.9-70.6 9.2-76.7 5.1-4.6 18.7-6.6 40.5-8-24-1.7-34.7-2.9-41-8.7-6.1-5.6-7.3-16.5-8.7-40.3-1.5 23.1-2.2 33.5-8.5 39.8-6.6 6.8-16.3 7.3-41.3 9.2 22.8 1.7 34.5 2.9 40.5 8.3 6.9 6.3 6.4 32.3 9.3 76.4z"/><path fill="#FFDFC3" d="M543.8 426.8c2.9-43.7 2.9-70.9 9.2-76.7 5.1-4.6 18.7-6.6 40.5-8-23.8-1.7-34.7-2.9-41-8.7-6.1-5.6-7-16.5-8.7-40.3-1.5 23.1-2.2 33.5-8.3 39.8-6.3 6.6-16.3 7.3-41.5 9 22.6 1.7 34.5 2.9 40.5 8.3 6.9 6.5 6.4 32.7 9.3 76.6z"/><path fill="#FFE0C4" d="M543.8 426.8c2.9-43.7 2.9-70.9 9.2-76.7 5.1-4.6 18.9-6.3 40.5-8-23.8-1.7-34.7-2.9-41-8.5-6.1-5.6-7-16.7-8.7-40.3-1.5 23.1-2.2 33.5-8.3 39.8-6.3 6.6-16.5 7.3-41.5 9 22.6 1.7 34.7 2.7 40.5 8.3 6.9 6.3 6.4 32.5 9.3 76.4z"/><path fill="#FFE0C5" d="M543.8 426.8c2.9-43.4 2.9-70.9 9.2-76.7 5.1-4.6 18.9-6.3 40.5-8-23.8-1.7-34.9-2.9-41-8.5-6.1-5.6-7-16.7-8.7-40.3-1.5 23.1-2.2 33.7-8.3 39.8-6.3 6.6-16.5 7-41.5 9 22.6 1.7 34.7 2.7 40.5 8.3 6.9 6 6.4 32.5 9.3 76.4z"/><path fill="#FFE1C6" d="M543.8 426.8c2.9-43.4 2.9-70.9 9-76.7 5.1-4.6 19.2-6.3 40.5-8-23.8-1.7-34.9-2.9-41-8.5-6.1-5.6-7-16.7-8.5-40.3-1.5 23.1-2.2 33.7-8.3 40-6.3 6.6-16.7 7-41.5 9 22.6 1.7 34.7 2.7 40.5 8 6.9 6.1 6.4 32.8 9.3 76.5z"/><path fill="#FFE1C7" d="M543.8 426.8c2.9-43.4 2.7-71.1 9-76.9 5.1-4.6 19.2-6.3 40.8-7.8-23.8-1.7-34.9-2.9-41-8.5-6.1-5.6-7-17-8.5-40.3-1.5 22.8-2.2 33.7-8.2 40-6.3 6.6-16.7 7-41.5 8.7 22.3 1.7 34.9 2.7 40.5 8 6.5 6.4 6 33.1 8.9 76.8z"/><path fill="#FFE2C8" d="M543.8 426.8c2.9-43.2 2.7-71.1 9-76.9 4.9-4.6 19.2-6.3 40.8-7.8-23.5-1.7-34.9-2.9-41.3-8.5-6.1-5.6-7-17-8.5-40.5-1.5 22.8-2.2 34-8 40-6.3 6.3-16.7 7-41.5 8.7 22.3 1.7 34.9 2.7 40.8 8 6.3 6.4 5.8 33.3 8.7 77z"/><path fill="#FFE2C9" d="M543.8 426.8c2.9-43.2 2.7-71.1 9-76.9 4.9-4.6 19.4-6.3 40.8-7.8-23.5-1.7-35.2-2.7-41.3-8.3-6.1-5.6-6.8-17-8.5-40.5-1.5 22.8-2.2 34-8 40-6.1 6.3-17 7-41.5 8.7 22.3 1.7 34.9 2.7 40.8 8 6.3 6.2 5.8 33.4 8.7 76.8z"/><path fill="#FFE3CA" d="M543.8 426.8c2.9-43 2.7-71.1 9-76.9 4.9-4.6 19.4-6.1 40.8-7.8-23.5-1.7-35.2-2.7-41.3-8.3-6.1-5.3-6.8-17.2-8.5-40.5-1.5 22.8-2.2 34-8 40-6.1 6.3-17 6.8-41.7 8.7 22.3 1.7 34.9 2.7 40.8 8 6.5 6.2 6 33.4 8.9 76.8z"/><path fill="#FFE3CB" d="M543.8 426.8c2.9-43 2.7-71.3 8.7-76.9 4.9-4.6 19.4-6.1 40.8-7.8-23.5-1.7-35.2-2.7-41.3-8.3-5.8-5.3-6.8-17.2-8.2-40.5-1.5 22.8-2.2 34.2-8 40-6.1 6.3-17 6.8-41.7 8.7 22.1 1.7 35.2 2.7 40.8 7.8 6.7 6.2 6 33.6 8.9 77z"/><path fill="#FFE4CC" d="M543.8 426.8c2.9-43 2.7-71.3 8.7-76.9 4.9-4.6 19.7-6.1 40.8-7.5-23.3-1.7-35.4-2.7-41.3-8.3-5.8-5.3-6.8-17.2-8.2-40.5-1.5 22.8-2.2 34.2-8 40.3-6.1 6.3-17.2 6.8-41.7 8.5 22.1 1.7 35.2 2.7 40.8 7.8 6.7 5.8 6 33.4 8.9 76.6z"/><path fill="#FFE5CD" d="M543.8 426.8c2.9-42.7 2.7-71.3 8.7-76.9 4.9-4.6 19.7-6.1 41-7.5-23.3-1.7-35.4-2.7-41.3-8.3-5.8-5.3-6.8-17.5-8.3-40.5-1.5 22.6-2.2 34.2-7.8 40.3-6.1 6.3-17.2 6.8-41.7 8.5 22.1 1.7 35.2 2.4 40.8 7.8 6.4 5.5 5.7 33.4 8.6 76.6z"/><path fill="#FFE5CE" d="M543.8 426.8c2.9-42.7 2.7-71.6 8.7-77.2 4.9-4.6 19.9-6.1 41-7.5-23.3-1.7-35.4-2.7-41.5-8-5.8-5.3-6.6-17.5-8.2-40.8-1.5 22.6-2.2 34.5-7.8 40.3-6.1 6.1-17.5 6.8-41.7 8.5 21.8 1.7 35.2 2.4 41 7.8 6.3 5.8 5.6 33.7 8.5 76.9z"/><path fill="#FFE6CF" d="M543.8 426.8c2.9-42.7 2.7-71.6 8.5-77.2 4.9-4.6 19.9-5.8 41-7.5-23.3-1.7-35.7-2.7-41.5-8-5.8-5.3-6.6-17.5-8.3-40.8-1.5 22.6-2.2 34.5-7.8 40.3-5.8 6.1-17.5 6.6-41.7 8.5 21.8 1.7 35.4 2.4 41 7.5 6.6 6.1 5.9 34.3 8.8 77.2z"/><path fill="#FFE6D0" d="M543.8 426.8c2.9-42.5 2.7-71.6 8.5-77.2 4.9-4.6 19.9-5.8 41-7.5-23.3-1.7-35.7-2.7-41.5-8-5.8-5.3-6.6-17.7-8-40.8-1.5 22.6-2.2 34.5-7.8 40.3-5.8 6.1-17.5 6.6-42 8.5 21.8 1.7 35.4 2.4 41 7.5 6.6 5.9 5.9 34.3 8.8 77.2z"/><path fill="#FFE7D1" d="M543.8 426.6c2.9-42.5 2.4-71.6 8.5-77.2 4.9-4.6 20.1-5.8 41-7.3-23.1-1.7-35.7-2.7-41.5-8-5.8-5.3-6.6-17.7-8-40.8-1.5 22.6-2.2 34.7-7.8 40.3-5.8 6.1-17.7 6.6-42 8.3 21.8 1.7 35.4 2.4 41 7.5 6.6 6.1 5.9 34.5 8.8 77.2z"/><path fill="#FFE7D2" d="M543.8 426.6c2.9-42.5 2.4-71.8 8.5-77.2 4.9-4.6 20.1-5.8 41-7.3-23.1-1.7-35.9-2.7-41.5-7.8-5.6-5.1-6.6-17.7-8-40.8-1.5 22.3-2.2 34.7-7.5 40.5-5.8 6.1-17.7 6.6-42 8.3 21.6 1.7 35.4 2.4 41 7.5 6.3 5.7 5.6 34.3 8.5 76.8z"/><path fill="#FFE8D3" d="M543.8 426.6c2.9-42.2 2.4-71.8 8.5-77.2 4.9-4.4 20.1-5.8 41.3-7.3-23.1-1.7-35.9-2.7-41.5-7.8-5.6-5.1-6.3-18-8-40.8-1.5 22.3-2.2 34.7-7.5 40.5-5.8 6.1-18 6.6-42 8.3 21.6 1.7 35.7 2.4 41 7.5 6 5.4 5.3 34.3 8.2 76.8z"/><path fill="#FFE8D4" d="M543.8 426.6c2.9-42.2 2.4-71.8 8.2-77.4 4.9-4.4 20.4-5.6 41.3-7.3-23.1-1.7-35.9-2.7-41.7-7.8-5.6-5.1-6.3-18-8-41-1.5 22.3-2.2 34.9-7.5 40.5-5.8 5.8-18 6.3-42 8.3 21.6 1.7 35.7 2.4 41 7.3 6.5 6 5.8 34.9 8.7 77.4z"/><path fill="#FFE9D5" d="M543.8 426.6c2.9-42.2 2.4-71.8 8.2-77.4 4.9-4.4 20.4-5.6 41.3-7.3-23.1-1.7-35.9-2.7-41.7-7.8-5.6-5.1-6.3-18.2-7.8-41-1.5 22.3-1.9 34.9-7.5 40.5-5.6 5.8-18 6.3-42 8 21.6 1.7 35.7 2.4 41.3 7.3 6 6.3 5.3 35.5 8.2 77.7z"/><path fill="#FFE9D6" d="M543.8 426.6c2.9-42 2.4-72.1 8.2-77.4 4.9-4.4 20.6-5.6 41.3-7-22.8-1.7-36.2-2.4-41.7-7.8-5.6-5.1-6.3-18.2-7.8-41-1.5 22.3-1.9 34.9-7.5 40.5-5.6 5.8-18.2 6.3-42 8 21.4 1.7 35.9 2.2 41.3 7.3 6 5.8 5.3 35.2 8.2 77.4z"/><path fill="#FFEAD7" d="M543.8 426.6c2.9-42 2.4-72.1 8.2-77.4 4.9-4.4 20.6-5.6 41.3-7-22.8-1.7-36.2-2.4-41.7-7.5-5.6-5.1-6.3-18.2-7.8-41-1.5 22.1-1.9 35.2-7.3 40.5-5.6 5.8-18.2 6.3-42.2 8 21.4 1.5 35.9 2.2 41.3 7.3 6 5.5 5.3 34.9 8.2 77.1z"/><path fill="#FFEAD8" d="M543.8 426.6c2.9-42 2.4-72.1 8.2-77.4 4.9-4.4 20.6-5.6 41.3-7-22.8-1.7-36.2-2.4-41.7-7.5-5.6-5.1-6.1-18.4-7.8-41-1.5 22.1-1.9 35.2-7.3 40.8-5.6 5.8-18.2 6.3-42.2 8 21.4 1.5 35.9 2.2 41.3 7.3 6 5.2 5.3 34.8 8.2 76.8z"/><path fill="#FFEBD9" d="M543.8 426.6c2.9-41.7 2.4-72.3 8-77.4 4.9-4.4 20.9-5.6 41.5-7-22.8-1.7-36.4-2.4-41.7-7.5-5.6-5.1-6.1-18.4-7.8-41-1.5 22.1-1.9 35.2-7.3 40.8-5.6 5.8-18.4 6.1-42.2 8 21.1 1.5 35.9 2.2 41.3 7 6 5.2 5.3 35.1 8.2 77.1z"/><path fill="#FFEBDA" d="M543.8 426.6c2.9-41.7 2.4-72.3 8-77.7 4.9-4.4 20.9-5.3 41.5-7-22.8-1.7-36.4-2.4-41.7-7.5-5.3-5.1-6.1-18.4-7.5-41.3-1.5 22.1-1.9 35.4-7.3 40.8-5.6 5.6-18.4 6.1-42.2 7.8 21.1 1.5 36.2 2.2 41.3 7 5.7 6 5.2 35.9 7.9 77.9z"/><path fill="#FFECDB" d="M543.8 426.6c2.9-41.5 2.4-72.3 8-77.7 4.9-4.4 20.9-5.3 41.5-6.8-22.6-1.7-36.4-2.4-42-7.5-5.3-4.9-6.1-18.7-7.5-41.3-1.5 22.1-1.9 35.4-7.3 40.8-5.6 5.6-18.7 6.1-42.2 7.8 21.1 1.5 36.2 2.2 41.5 7 5.8 5.8 5.3 35.9 8 77.7z"/><path fill="#FFECDC" d="M543.8 426.6c2.9-41.5 2.2-72.3 8-77.7 4.6-4.4 21.1-5.3 41.5-6.8-22.6-1.7-36.6-2.4-42-7.3-5.3-4.9-6.1-18.7-7.5-41.3-1.5 21.8-1.9 35.4-7 40.8-5.3 5.6-18.7 6.1-42.2 7.8 21.1 1.5 36.2 2.2 41.5 7 5.5 5.4 5 35.7 7.7 77.5z"/><path fill="#FFEDDD" d="M543.8 426.6c2.9-41.5 2.2-72.6 8-77.7 4.6-4.4 21.1-5.3 41.5-6.8-22.6-1.7-36.6-2.4-42-7.3-5.3-4.9-6.1-18.7-7.5-41.3-1.5 21.8-1.9 35.7-7 40.8-5.3 5.6-18.7 6.1-42.2 7.8 20.9 1.5 36.2 2.2 41.5 6.8 5.8 5.6 5 35.9 7.7 77.7z"/><path fill="#FFEEDE" d="M543.8 426.6c2.9-41.3 2.2-72.6 7.8-77.7 4.6-4.4 21.4-5.3 41.5-6.8-22.6-1.7-36.6-2.4-42-7.3-5.3-4.9-5.8-18.9-7.5-41.3-1.5 21.8-1.9 35.7-7 41-5.3 5.6-18.9 5.8-42.5 7.8 20.9 1.5 36.4 1.9 41.5 6.8 6.3 5.2 5.5 36 8.2 77.5z"/><path fill="#FFEEDF" d="M543.8 426.6c2.9-41.3 2.2-72.6 7.8-77.7 4.6-4.4 21.4-5.1 41.7-6.8-22.6-1.7-36.9-2.4-42-7.3-5.3-4.9-5.8-18.9-7.3-41.5-1.5 21.8-1.9 35.7-7 41-5.3 5.6-18.9 5.8-42.5 7.5 20.9 1.5 36.4 1.9 41.5 6.8 5.9 5.7 5.1 36.5 7.8 78z"/><path fill="#FFEFE0" d="M543.8 426.6c2.7-41.3 2.2-72.6 7.8-77.7 4.6-4.4 21.4-5.1 41.7-6.6-22.3-1.7-36.9-2.4-42-7-5.3-4.9-5.8-18.9-7.3-41.5-1.5 21.8-1.9 35.9-7 41-5.3 5.3-19.2 5.8-42.5 7.5 20.9 1.5 36.4 1.9 41.5 6.8 5.9 5.2 5.1 36 7.8 77.5z"/><path fill="#FFEFE1" d="M543.8 426.6c2.7-41 2.2-72.8 7.8-77.9 4.6-4.4 21.6-5.1 41.7-6.6-22.3-1.7-36.9-2.4-42.2-7-5.3-4.9-5.8-19.2-7.3-41.5-1.5 21.8-1.9 35.9-7 41-5.3 5.3-19.2 5.8-42.5 7.5 20.6 1.5 36.6 1.9 41.7 6.8 5.9 5.1 5.1 36.4 7.8 77.7z"/><path fill="#FFF0E2" d="M543.8 426.6c2.7-41 2.2-72.8 7.5-77.9 4.6-4.4 21.6-5.1 41.7-6.6-22.3-1.7-36.9-2.4-42.2-7-5.1-4.9-5.8-19.2-7.3-41.5-1.5 21.6-1.9 35.9-6.8 41-5.1 5.3-19.2 5.8-42.5 7.5 20.6 1.5 36.6 1.9 41.7 6.6 6 5.3 5.2 36.6 7.9 77.9z"/><path fill="#FFF0E3" d="M543.8 426.6c2.7-41 2.2-72.8 7.5-77.9 4.6-4.4 21.6-5.1 41.7-6.6-22.3-1.7-37.1-2.2-42.2-7-5.1-4.9-5.6-19.2-7.3-41.5-1.5 21.6-1.9 36.2-6.8 41.3-5.1 5.3-19.4 5.6-42.5 7.3 20.6 1.5 36.6 1.9 41.7 6.6 6 5.2 5.2 36.5 7.9 77.8z"/><path fill="#FFF1E4" d="M543.8 426.6c2.7-40.8 2.2-72.8 7.5-77.9 4.6-4.4 21.8-5.1 41.7-6.6-22.3-1.7-37.1-2.2-42.2-7-5.1-4.6-5.6-19.4-7-41.5-1.5 21.6-1.9 36.2-6.8 41.3-5.1 5.3-19.4 5.6-42.7 7.3 20.4 1.5 36.6 1.9 41.7 6.6 5.9 5 5.1 36.8 7.8 77.8z"/><path fill="#FFF1E5" d="M543.8 426.6c2.7-40.8 2.2-73 7.5-77.9 4.6-4.4 21.8-4.9 42-6.3-22.1-1.7-37.1-2.2-42.2-6.8-5.1-4.6-5.6-19.4-7-41.7-1.5 21.6-1.9 36.2-6.8 41.3-5.1 5.3-19.4 5.6-42.7 7.3 20.4 1.5 36.9 1.9 41.7 6.6 5.6 4.7 4.8 36.5 7.5 77.5z"/><path fill="#FFF2E6" d="M543.8 426.6c2.7-40.8 2.2-73 7.5-77.9 4.6-4.4 22.1-4.9 42-6.3-22.1-1.7-37.4-2.2-42.2-6.8-5.1-4.6-5.6-19.4-7-41.7-1.5 21.6-1.9 36.4-6.8 41.3-5.1 5.1-19.7 5.6-42.7 7.3 20.4 1.5 36.9 1.9 41.7 6.6 5.6 4.7 4.8 36.5 7.5 77.5z"/><path fill="#FFF2E7" d="M543.8 426.6c2.7-40.5 1.9-73 7.3-78.1 4.6-4.4 22.1-4.9 42-6.3-22.1-1.7-37.4-2.2-42.2-6.8-5.1-4.6-5.6-19.7-7-41.7-1.5 21.4-1.9 36.4-6.6 41.3-5.1 5.1-19.7 5.6-42.7 7.3 20.4 1.5 36.9 1.7 42 6.3 5.3 4.9 4.5 37.2 7.2 78z"/><path fill="#FFF3E8" d="M543.8 426.6c2.7-40.5 1.9-73.3 7.3-78.1 4.6-4.1 22.1-4.9 42-6.3-22.1-1.7-37.4-2.2-42.5-6.8-5.1-4.6-5.3-19.7-7-41.7-1.5 21.4-1.9 36.4-6.6 41.3-4.9 5.1-19.9 5.3-42.7 7 20.1 1.5 36.9 1.7 42 6.3 5.6 5.2 4.8 37.5 7.5 78.3z"/><path fill="#FFF3E9" d="M543.8 426.3c2.7-40.5 1.9-73.3 7.3-78.1 4.6-4.1 22.3-4.9 42-6.3-21.8-1.7-37.6-2.2-42.5-6.8-5.1-4.6-5.3-19.9-6.8-41.7-1.5 21.4-1.9 36.4-6.6 41.5-4.9 5.1-19.9 5.3-42.7 7 20.1 1.5 37.1 1.7 42 6.3 5.4 5.3 4.6 37.6 7.3 78.1z"/><path fill="#FFF4EA" d="M543.8 426.3c2.7-40.3 1.9-73.3 7.3-78.1 4.6-4.1 22.3-4.6 42-6.1-21.8-1.7-37.6-2.2-42.5-6.6-4.9-4.6-5.3-19.9-6.8-41.7-1.5 21.4-1.9 36.6-6.6 41.5-4.9 5.1-19.9 5.3-42.7 7 20.1 1.5 37.1 1.7 42 6.3 5.4 4.7 4.6 37.5 7.3 77.7z"/><path fill="#FFF4EB" d="M543.8 426.3c2.7-40.3 1.9-73.3 7.3-78.1 4.6-4.1 22.3-4.6 42.2-6.1-21.8-1.7-37.6-2.2-42.5-6.6-4.9-4.6-5.3-19.9-6.8-42-1.5 21.4-1.7 36.6-6.6 41.5-4.9 5.1-20.1 5.3-43 7 20.1 1.5 37.1 1.7 42 6.1 5.5 5.2 4.7 38 7.4 78.2z"/><path fill="#FFF5EC" d="M543.8 426.3c2.7-40 1.9-73.5 7-78.1 4.6-4.1 22.6-4.6 42.2-6.1-21.8-1.7-37.6-2.2-42.5-6.6-4.9-4.4-5.3-20.1-6.8-42-1.5 21.1-1.7 36.6-6.3 41.5-4.9 4.9-20.1 5.3-43 7 19.9 1.5 37.4 1.7 42 6.1 5.5 5.2 4.7 38 7.4 78.2z"/><path fill="#FFF5ED" d="M543.8 426.3c2.7-40 1.9-73.5 7-78.4 4.6-4.1 22.6-4.6 42.2-6.1-21.8-1.7-37.9-2.2-42.5-6.6-4.9-4.4-5.1-20.1-6.8-42-1.5 21.1-1.7 36.9-6.3 41.5-4.9 4.9-20.4 5.1-43 6.8 19.9 1.5 37.4 1.7 42 6.1 5.5 5.4 4.7 38.7 7.4 78.7z"/><path fill="#FFF6EE" d="M543.8 426.3c2.7-40 1.9-73.5 7-78.4 4.6-4.1 22.8-4.6 42.2-6.1-21.6-1.7-37.9-2.2-42.7-6.3-4.9-4.4-5.1-20.1-6.6-42-1.5 21.1-1.7 36.9-6.3 41.5-4.6 4.9-20.4 5.1-43 6.8 19.9 1.5 37.4 1.7 42.2 6.1 5.3 5.1 4.5 38.4 7.2 78.4z"/><path fill="#FFF7EF" d="M543.8 426.3c2.7-39.8 1.9-73.5 7-78.4 4.6-4.1 22.8-4.4 42.2-5.8-21.6-1.7-37.9-1.9-42.7-6.3-4.9-4.4-5.1-20.4-6.6-42-1.5 21.1-1.7 36.9-6.3 41.7-4.6 4.9-20.4 5.1-43 6.8 19.7 1.5 37.4 1.7 42.2 6.1 5.5 4.4 4.5 37.9 7.2 77.9z"/><path fill="#FFF7F0" d="M543.8 426.3c2.7-39.8 1.9-73.8 7-78.4 4.4-4.1 22.8-4.4 42.2-5.8-21.6-1.7-38.1-1.9-42.7-6.3-4.9-4.4-5.1-20.4-6.6-42-1.5 21.1-1.7 37.1-6.3 41.7-4.6 4.9-20.6 5.1-43 6.8 19.7 1.5 37.6 1.5 42.2 5.8 5.5 4.7 4.5 38.4 7.2 78.2z"/><path fill="#FFF8F1" d="M543.8 426.3c2.7-39.8 1.9-73.8 6.8-78.4 4.4-4.1 23.1-4.4 42.5-5.8-21.6-1.7-38.1-1.9-42.7-6.3-4.9-4.4-5.1-20.4-6.6-42.2-1.5 20.9-1.7 37.1-6.1 41.7-4.6 4.6-20.6 5.1-43 6.8 19.7 1.5 37.6 1.5 42.2 5.8 5.2 4.9 4.2 38.6 6.9 78.4z"/><path fill="#FFF8F2" d="M543.8 426.3c2.7-39.6 1.7-73.8 6.8-78.4 4.4-4.1 23.1-4.4 42.5-5.8-21.6-1.7-38.1-1.9-42.7-6.3-4.6-4.4-5.1-20.6-6.6-42.2-1.5 20.9-1.7 37.1-6.1 41.7-4.6 4.6-20.6 5.1-43.2 6.6 19.7 1.5 37.6 1.5 42.2 5.8 5.4 4.9 4.4 38.8 7.1 78.6z"/><path fill="#FFF9F3" d="M543.8 426.3c2.7-39.6 1.7-74 6.8-78.6 4.4-4.1 23.1-4.4 42.5-5.8-21.4-1.7-38.3-1.9-42.7-6.1-4.6-4.4-4.9-20.6-6.3-42.2-1.5 20.9-1.7 37.4-6.1 41.7-4.6 4.6-20.9 4.9-43.2 6.6 19.4 1.5 37.6 1.5 42.2 5.8 5.1 4.9 4.1 39.1 6.8 78.6z"/><path fill="#FFF9F4" d="M543.8 426.3c2.7-39.6 1.7-74 6.8-78.6 4.4-4.1 23.3-4.4 42.5-5.6-21.4-1.7-38.3-1.9-43-6.1-4.6-4.4-4.9-20.6-6.3-42.2-1.5 20.9-1.7 37.4-6.1 41.7-4.4 4.6-20.9 4.9-43.2 6.6 19.4 1.5 37.9 1.5 42.5 5.8 5.1 4.7 4.1 38.9 6.8 78.4z"/><path fill="#FFFAF5" d="M543.8 426.3c2.7-39.3 1.7-74 6.6-78.6 4.4-4.1 23.3-4.1 42.5-5.6-21.4-1.5-38.3-1.9-43-6.1-4.6-4.1-4.9-20.9-6.3-42.2-1.5 20.9-1.7 37.4-6.1 42-4.4 4.6-21.1 4.9-43.2 6.6 19.4 1.5 37.9 1.5 42.5 5.6 5.3 4.3 4.3 38.8 7 78.3z"/><path fill="#FFFAF6" d="M543.8 426.3c2.7-39.3 1.7-74 6.6-78.6 4.4-4.1 23.5-4.1 42.5-5.6-21.4-1.5-38.6-1.9-43-6.1-4.6-4.1-4.9-20.9-6.3-42.2-1.5 20.6-1.7 37.6-5.8 42-4.4 4.6-21.1 4.9-43.2 6.3 19.4 1.5 37.9 1.5 42.5 5.6 5 4.6 4 39.3 6.7 78.6z"/><path fill="#FFFBF7" d="M543.8 426.3c2.7-39.3 1.7-74.3 6.6-78.6 4.4-4.1 23.5-4.1 42.7-5.6-21.4-1.5-38.6-1.9-43-6.1-4.6-4.1-4.9-20.9-6.3-42.5-1.5 20.6-1.7 37.6-5.8 42-4.4 4.4-21.1 4.9-43.2 6.3 19.2 1.5 38.1 1.5 42.5 5.6 4.8 4.9 3.8 39.6 6.5 78.9z"/><path fill="#FFFBF8" d="M543.8 426.3c2.7-39.1 1.7-74.3 6.6-78.6 4.4-4.1 23.5-4.1 42.7-5.6-21.1-1.5-38.6-1.9-43-5.8-4.6-4.1-4.6-21.1-6.1-42.5-1.5 20.6-1.7 37.6-5.8 42-4.4 4.4-21.4 4.6-43.2 6.3 19.2 1.5 38.1 1.5 42.5 5.6 4.6 4.4 3.6 39.6 6.3 78.6z"/><path fill="#FFFCF9" d="M543.8 426.3c2.7-39.1 1.7-74.3 6.6-78.6 4.4-4.1 23.8-4.1 42.7-5.3-21.1-1.5-38.6-1.9-43-5.8-4.6-4.1-4.6-21.1-6.1-42.5-1.5 20.6-1.7 37.9-5.8 42-4.4 4.4-21.4 4.6-43.4 6.3 19.2 1.5 38.1 1.2 42.5 5.3 4.8 4.4 3.8 39.6 6.5 78.6z"/><path fill="#FFFCFA" d="M543.8 426.3c2.7-39.1 1.7-74.3 6.3-78.9 4.4-4.1 23.8-3.9 42.7-5.3-21.1-1.5-38.8-1.9-43.2-5.8-4.4-4.1-4.6-21.4-6.1-42.5-1.5 20.6-1.7 37.9-5.8 42-4.1 4.4-21.6 4.6-43.4 6.3 18.9 1.5 38.1 1.2 42.7 5.3 5.1 4.7 4.1 39.9 6.8 78.9z"/><path fill="#FFFDFB" d="M543.8 426.3c2.7-38.8 1.7-74.5 6.3-78.9 4.4-4.1 23.8-3.9 42.7-5.3-21.1-1.5-38.8-1.9-43.2-5.8-4.4-4.1-4.6-21.4-6.1-42.5-1.5 20.6-1.7 37.9-5.6 42.2-4.1 4.4-21.6 4.6-43.4 6.1 18.9 1.5 38.3 1.2 42.7 5.3 4.9 4.4 3.9 40.1 6.6 78.9z"/><path fill="#FFFDFC" d="M543.8 426.3c2.7-38.8 1.7-74.5 6.3-78.9 4.4-3.9 24-3.9 42.7-5.3-21.1-1.5-38.8-1.7-43.2-5.6-4.4-4.1-4.6-21.4-6.1-42.5-1.5 20.4-1.7 38.1-5.6 42.2-4.1 4.4-21.6 4.6-43.4 6.1 18.9 1.5 38.3 1.2 42.7 5.3 4.9 4.2 3.9 39.9 6.6 78.7z"/><path fill="#FFFEFD" d="M543.8 426.3c2.7-38.6 1.5-74.5 6.3-78.9 4.4-3.9 24-3.9 43-5.3-20.9-1.5-39.1-1.7-43.2-5.6-4.4-4.1-4.4-21.6-5.8-42.7-1.5 20.4-1.7 38.1-5.6 42.2-4.1 4.1-21.8 4.4-43.4 6.1 18.9 1.5 38.3 1.2 42.7 5.3 4.3 4.4 3.3 40.1 6 78.9z"/><path fill="#FFFEFE" d="M543.8 426.3c2.7-38.6 1.5-74.5 6.3-78.9 4.4-3.9 24-3.9 43-5.1-20.9-1.5-39.1-1.7-43.2-5.6-4.4-3.9-4.4-21.6-5.8-42.7-1.5 20.4-1.7 38.1-5.6 42.2-4.1 4.1-21.8 4.4-43.4 6.1 18.7 1.5 38.3 1.2 42.7 5.1 4.3 4.2 3.3 40.3 6 78.9z"/><path fill="#FFF" d="M543.8 426.3c2.7-38.6 1.5-74.7 6.1-78.9 4.4-3.9 24.3-3.9 43-5.1-20.9-1.5-39.1-1.7-43.2-5.6-4.4-3.9-4.4-21.6-5.8-42.7-1.5 20.4-1.7 38.3-5.6 42.2-4.1 4.1-22.1 4.4-43.7 6.1 18.7 1.5 38.6 1.2 42.7 5.1 4.8 4.2 3.8 40.3 6.5 78.9z"/><g><path d="M466.9 432.2c-3.9 0-7-3.2-7-7 0-3.9 3.2-7 7-7s7 3.2 7 7-3.1 7-7 7zm0-13.1c-3.4 0-5.8 2.7-5.8 5.8 0 3.4 2.7 5.8 5.8 5.8 3.4 0 5.8-2.7 5.8-5.8s-2.7-5.8-5.8-5.8zm-3.2 2.1h3.4c1.9 0 2.4 1.2 2.4 1.9 0 1.2-1 2.2-2.2 2.2.7.2 1.2 1 1.7 1.9l1 1.5h-1.5l-.7-1.2c-1-1.7-1.2-1.9-2.2-1.9h-.7v3.4h-1.2v-7.8zm2.9 3.4c1 0 1.7-.2 1.7-1.2 0-.7-.5-1.2-1.5-1.2h-1.9v2.2h1.7v.2z"/></g></svg>